/* XPM */
static char *_[] = {
/* columns rows colors chars-per-pixel */
"10 10 3 1 ",
"  c black",
". c white",
"X c None",
/* pixels */
"XXXXXXXXXX",
"    XXXXXX",
" .. XXXXXX",
" .. XXXXXX",
" .. XXXXXX",
" .. XXXXXX",
" .. XXXXXX",
"    XXXXXX",
"XXXXXXXXXX",
"XXXXXXXXXX"
};
