/* XPM */
static char *__mechant_1[] = {
/* columns rows colors chars-per-pixel */
"64 64 9 1 ",
"  c black",
". c #2C2C2C",
"X c gray33",
"o c #AF6F9B",
"O c #D090BC",
"+ c #C0C0C0",
"@ c #F9F9F9",
"# c white",
"$ c None",
/* pixels */
"$$$$$$$$$$$$$$$$$$$$$$$$$$$$$$$$$$$$$$$$$$$$$$$$$$$$$$$$$$$$$$$$",
"$$$$$$$$$$$$$$$$$$$$$$$$$$$$$$$$$$$$$$$$$$$$$$$$$$$$$$$$$$$$$$$$",
"$$$$$$$$$$$$$$$$$$$$$$$$$$$$$$$$$$$$$$$$$$$$$$$$$$$$$$$$$$$$$$$$",
"$$$$$$$$$$$$$$$$$$$$$$$$$$$$$$$$$$$$$$$$$$$$$$$$$$$$$$$$$$$$$$$$",
"$$$$$$$$$$$$$$$$$$$$$$$$$$$$$$$$$$$$$$$$$$$$$$$$$$$$$$$$$$$$$$$$",
"$$$$$$$$$$$$$$$$$$$$$$$$$$$$$$$$$$$$$$$$$$$$$$$$$$$$$$$$$$$$$$$$",
"$$$$$$$$$$$$$$$$$$$$$$$$$$$$$$$$$$$$$$$$$$$$$$$$$$$$$$$$$$$$$$$$",
"$$$$$$$$$$$$$$$$$$$$$$$$$$$$$$$$$$$$$$$$$$$$$$$$$$$$$$$$$$$$$$$$",
"$$$$$$$$$$$$$$$$$$$$$$$$$$$$$$$$$$$$$$$$$$$$$$$$$$$$$$$$$$$$$$$$",
"$$$$$$$$$$$$$$$$$$$$$$$$$$$$$$$$$$$$$$$$$$$$$$$$$$$$$$$$$$$$$$$$",
"$$$$$$$$$$$$$$$$$$$$$$$$$$$$$$$$$$$$$$$$$$$$$$$$$$$$$$$$$$$$$$$$",
"$$$$$$$$$$$$$$$$$$$$$$$$$$$$$$$$$$$$$$$$$$$$$$$$$$$$$$$$$$$$$$$$",
"$$$$$$$$$$$$$$$$$$$$$$$$$$$$$$$$$$$$$$$$$$$$$$$$$$$$$$$$$$$$$$$$",
"$$$$$$$$$$$$$$$$$$$$$$$$$$$$$$$$$$$$$$$$$$$$$$$$$$$$$$$$$$$$$$$$",
"$$$$$$$$$$$$$$$$$$$$$$$$$$$$$$$$$$$$$$$$$$$$$$$$$$$$$$$$$$$$$$$$",
"$$$$$$$$$$$$$$$$$$$$$$$$$$$$$$$$$$$$$$$$$$$$$$$$$$$$$$$$$$$$$$$$",
"$$$$$$$$$$$$$$$$$$$$$$$$$$$$$$$$$$$$$$$$$$$$$$$$$$$$$$$$$$$$$$$$",
"$$$$$$$$$$$$$$$$$$$$$$$$$$$$$$$$$$$$$$$$$$$$$$$$$$$$$$$$$$$$$$$$",
"$$$$$$$$$$$$$$$$$$$$$$$$$$$$$$$$$$$$$$$$$$$$$$$$$$$$$$$$$$$$$$$$",
"$$$$$$$$$$$$$$$$$$$$$$$$$$$$$$$$$$$$$$$$$$$$$$$$$$$$$$$$$$$$$$$$",
"$$$$$$$$$$$$$$$$$$$$$$$$$$$$$$$$$$$$$$$$$$$$$$$$$$$$$$$$$$$$$$$$",
"$$$$$$$$$$$$$$$$$$$$$$$$$$$$$$$$$$$$$$$$$$$$$$$$$$$$$$$$$$$$$$$$",
"$$$$$$$$$$$$$$$$$$$$$$$$$$$$$$$$$$$$$$$$$$$$$$$$$$$$$$$$$$$$$$$$",
"$$$$$$$$$$$$$$$$$$$$$$$$$$$$$$$$$$$$$$$$$$$$$$$$$$$$$$$$$$$$$$$$",
"$$$$$$$$$$$$$$$$$$$$##############$$$$$$$$$$$$$$$$$$$$$$$$$$$$$$",
"$$$$$$$$$$$$$$$$$$$$##############$$$$$$$$$$$$$$$$$$$$$$$$$$$$$$",
"$$$$$$$$$$$$$$$$$$##              ##$$$$$$$$$$$$$$$$$$$$$$$$$$$$",
"$$$$$$$$$$$$$$$$$$##              ##$$$$$$$$$$$$$$$$$$$$$$$$$$$$",
"$$$$$$$$$$$$$$$$##  @@@@@@@@@@@@@@  ##$$$$$$$$$$$$######$$$$$$$$",
"$$$$$$$$$$$$$$$$##  @@@@@@@@@@@@@@  ##$$$$$$$$$$$$######$$$$$$$$",
"$$$$$$$$$$$$$$##  @@++++++++++++++@@  ##$$$$$$$$##      ##$$$$$$",
"$$$$$$$$$$$$$$##  @@++++++++++++++@@  ##$$$$$$$$##      ##$$$$$$",
"$$$$$$$$$$$$$$##  ++++++++++++++++++  ##$$$$$$##  @@@@  ##$$$$$$",
"$$$$$$$$$$$$$$##  ++++++++++++++++++  ##$$$$$$##  @@@@  ##$$$$$$",
"$$$$$$$$$$$$$$##  ++++  ##++++++  ##  ##$$$$##  @@++XX  ##$$$$$$",
"$$$$$$$$$$$$$$##  ++++  ##++++++  ##  ##$$$$##  @@++XX  ##$$$$$$",
"$$$$$$$$$$$$$$##  ++++    ++++++      ##$$##  @@++XX  ##$$$$$$$$",
"$$$$$$$$$$$$$$##  ++++    ++++++      ##$$##  @@++XX  ##$$$$$$$$",
"$$$$$$$$$$######  XXOOOO++++++++++oo  ####  @@++XX  ##$$$$$$$$$$",
"$$$$$$$$$$######  XXOOOO++++++++++oo  ####  @@++XX  ##$$$$$$$$$$",
"$$$$$$$$##          XX++++++++++XX    ##  @@++XX  ##$$$$$$$$$$$$",
"$$$$$$$$##          XX++++++++++XX    ##  @@++XX  ##$$$$$$$$$$$$",
"$$$$$$##  @@@@@@@@    XXXXXXXXXX  ....  @@++XX  ##$$$$$$$$$$$$$$",
"$$$$$$##  @@@@@@@@    XXXXXXXXXX  ....  @@++XX  ##$$$$$$$$$$$$$$",
"$$$$##  @@@@@@@@@@@@              ..XX  ++XX  ##$$$$$$$$$$$$$$$$",
"$$$$##  @@@@@@@@@@@@              ..XX  ++XX  ##$$$$$$$$$$$$$$$$",
"$$$$##  @@@@@@@@@@@@  ++++++++++    XXXX    ##$$$$$$$$$$$$$$$$$$",
"$$$$##  @@@@@@@@@@@@  ++++++++++    XXXX    ##$$$$$$$$$$$$$$$$$$",
"$$$$##  ++@@@@@@@@++  ++++++++++  ..XXXXXXXX  ##$$$$$$$$$$$$$$$$",
"$$$$##  ++@@@@@@@@++  ++++++++++  ..XXXXXXXX  ##$$$$$$$$$$$$$$$$",
"$$$$$$##  ++@@@@++    ++++++++++  ....  ....  ##$$$$$$$$$$$$$$$$",
"$$$$$$##  ++@@@@++    ++++++++++  ....  ....  ##$$$$$$$$$$$$$$$$",
"$$$$$$$$##  ++++  ##  XXXX      ##    ##    ##$$$$$$$$$$$$$$$$$$",
"$$$$$$$$##  ++++  ##  XXXX      ##    ##    ##$$$$$$$$$$$$$$$$$$",
"$$$$$$$$$$##    ##$$##      ....  ####$$####$$$$$$$$$$$$$$$$$$$$",
"$$$$$$$$$$##    ##$$##      ....  ####$$####$$$$$$$$$$$$$$$$$$$$",
"$$$$$$$$$$$$####$$$$$$######    ##$$$$$$$$$$$$$$$$$$$$$$$$$$$$$$",
"$$$$$$$$$$$$####$$$$$$######    ##$$$$$$$$$$$$$$$$$$$$$$$$$$$$$$",
"$$$$$$$$$$$$$$$$$$$$$$$$$$$$####$$$$$$$$$$$$$$$$$$$$$$$$$$$$$$$$",
"$$$$$$$$$$$$$$$$$$$$$$$$$$$$####$$$$$$$$$$$$$$$$$$$$$$$$$$$$$$$$",
"$$$$$$$$$$$$$$$$$$$$$$$$$$$$$$$$$$$$$$$$$$$$$$$$$$$$$$$$$$$$$$$$",
"$$$$$$$$$$$$$$$$$$$$$$$$$$$$$$$$$$$$$$$$$$$$$$$$$$$$$$$$$$$$$$$$",
"$$$$$$$$$$$$$$$$$$$$$$$$$$$$$$$$$$$$$$$$$$$$$$$$$$$$$$$$$$$$$$$$",
"$$$$$$$$$$$$$$$$$$$$$$$$$$$$$$$$$$$$$$$$$$$$$$$$$$$$$$$$$$$$$$$$"
};
