/* XPM */
static char *__duck_4[] = {
/* columns rows colors chars-per-pixel */
"32 32 11 1 ",
"  c black",
". c #AB4818",
"X c #D25F27",
"o c #AE8021",
"O c #DBA637",
"+ c #FF8449",
"@ c #FCC552",
"# c #FFC1A3",
"$ c #FFE8B9",
"% c white",
"& c None",
/* pixels */
"&&&&&&&&&&&&&&&&&&&&&&&&&&&&&&&&",
"&&&&&&&&&&&&&&&&&&&&&&&&&&&&&&&&",
"&&&&&&&&&&&&&&&&&&&&&&&&&&&&&&&&",
"&&&&&&&&&&&&&&&&&&&&&&&&&&&&&&&&",
"&&&&&&&&&&&&&&&&&&&&&&&&&&&&&&&&",
"&&&&&&&&&&&&&&&&&&&&&&&&&&&&&&&&",
"&&&&&&&&&&&&&&&&&&&&&&&&&&&&&&&&",
"&&&&&&&&&&%%%%%%%&&&&&&&&&&&&&&&",
"&&&&&&&&&%ooooooo%&&&&&&&&&&&&&&",
"&&&&&&&&%o$$$$$$$o%&&&&&&&&&&&&&",
"&&&&&&&%o$@@@@@@@$o%&&&&&&&&&&&&",
"&&&&&&&%o@@@@@@@@@o%&&&&&&&&&&&&",
"&&&&&&%%o@@@@@% @@o%&&&&&&&&&&&&",
"&&&&&%.....@@@  @@o%&&&&&&&&&&&&",
"&&&&%.##+++.@@@@@@o%&&&&&&&&&&&&",
"&&&%.XXXXXX.@@@@@@o%&&&&&&&&&&&&",
"&&&&%......O@@@@@Oo%&&&&&&&&&&&&",
"&&&&&%%%%oOO@@@@Oo%&%%%&&&&&&&&&",
"&&&&&&&&&%oOOOOOo%&%ooo%&&&&&&&&",
"&&&&&&&&&%oOOOOOo%%o$$$o%&&&&&&&",
"&&&&&&&&&%o@@@@@@oo$@@@$o%&&&&&&",
"&&&&&&&&%o@@@@$$@@@oo@@@o%&&&&&&",
"&&&&&&&&%o@@@$@@@@@@@o@@o%&&&&&&",
"&&&&&&&&%o@@@@@@@@@@@o@@o%&&&&&&",
"&&&&&&&&%oO@@@@@@@@@@o@Oo%&&&&&&",
"&&&&&&&&%oOOo@@@@@@@oOOOo%&&&&&&",
"&&&&&&&&&%oOOoooooooOOOo%&&&&&&&",
"&&&&&&&&&&%oOOOOOOOOOOo%&&&&&&&&",
"&&&&&&&&&&&%oooooooooo%&&&&&&&&&",
"&&&&&&&&&&&&%%.XXX%%%%&&&&&&&&&&",
"&&&&&&&&&&&&%.XXXX%&&&&&&&&&&&&&",
"&&&&&&&&&&&&&%%%%%&&&&&&&&&&&&&&"
};
