/* XPM */
static char *_[] = {
/* columns rows colors chars-per-pixel */
"20 20 3 1 ",
"  c black",
". c white",
"X c None",
/* pixels */
"XXXXXXXXXXXXXXXXXXXX",
"XXXXXXXXXXXXXXXXXXXX",
"              XXXXXX",
"              XXXXXX",
"  ..........  XXXXXX",
"  ..........  XXXXXX",
"        ....  XXXXXX",
"        ....  XXXXXX",
"XX  ........  XXXXXX",
"XX  ........  XXXXXX",
"        ....  XXXXXX",
"        ....  XXXXXX",
"  ..........  XXXXXX",
"  ..........  XXXXXX",
"              XXXXXX",
"              XXXXXX",
"XXXXXXXXXXXXXXXXXXXX",
"XXXXXXXXXXXXXXXXXXXX",
"XXXXXXXXXXXXXXXXXXXX",
"XXXXXXXXXXXXXXXXXXXX"
};
