/* XPM */
static char *a_dark[] = {
/* columns rows colors chars-per-pixel */
"38 41 74 1 ",
"  c #43495F",
". c #434A5E",
"X c #424A5F",
"o c #434A5F",
"O c #424A60",
"+ c #444B60",
"@ c #444B61",
"# c #454C60",
"$ c #474D63",
"% c #464E63",
"& c #474E63",
"* c #484E64",
"= c #484F64",
"- c #494F65",
"; c #4B5167",
": c #4C5368",
"> c #4C5369",
", c #4E546A",
"< c #4E556A",
"1 c #50576D",
"2 c #51586E",
"3 c #505870",
"4 c #515870",
"5 c #515970",
"6 c #575E73",
"7 c #565E77",
"8 c #575E77",
"9 c #585F74",
"0 c #596076",
"q c #5A6177",
"w c #5B6278",
"e c #5C6279",
"r c #5D647A",
"t c #5D647B",
"y c #5E647A",
"u c #5F667C",
"i c #62687E",
"p c #62697F",
"a c #636980",
"s c #646A81",
"d c #646B81",
"f c #666B82",
"g c #656C82",
"h c #636A85",
"j c #636B85",
"k c #6A7087",
"l c #6B7289",
"z c #6E748B",
"x c #70768E",
"c c #71788E",
"v c #6D7592",
"b c #727990",
"n c #737990",
"m c #747A91",
"M c #757C93",
"N c #787D95",
"B c #797E95",
"V c #798097",
"C c #7E849B",
"Z c #80869E",
"A c #8289A0",
"S c #858AA2",
"D c #868CA4",
"F c #878DA5",
"G c #878EA5",
"H c #888DA5",
"J c #888EA6",
"K c #898FA6",
"L c #888EA7",
"P c #898FA7",
"I c #8A90A8",
"U c #A7ADBE",
"Y c #A8ACBD",
"T c None",
/* pixels */
"TTTTTOooooooooooooooooooooooooooOTTTTT",
"TTTooooooooooooooooooooooooooooooooTTT",
"TT.oooooooooooooooooooooooooooooooooTT",
"T.OooooooooooooooooooooooooooooooooooT",
"Toooo#esssssssssssssssssssssssse#+.ooT",
"Oooo#VIIIIIIIIIIIIIIIIIIIIIIIIIIN#Oooo",
"ooooqIIIIIIIIIIIIIIIIIIIIIIIIIIIIqooo.",
"oooosIIIIIIIIIIIIIIIIIIIIIIIIIIIIdoooO",
"oooodIIIIIIIIIIIIIIIIIIIIIIIIIIIIdoooo",
"oooodIIIIIIIIIIIHzzzzHIIIIIIIIIIIdoooo",
"oooodIIIIIIIIIIIc.oo.xIIIIIIIIIIIdoooo",
"oooodIIIIIIIIIIIqOooO6IIIIIIIIIIIdoooo",
"oooodIIIIIIIIIISooooooAIIIIIIIIIIdoooo",
"oooodIIIIIIIIIIloo;#oOkIIIIIIIIIIdoooo",
"oooodIIIIIIIIII2O.rwO.2IIIIIIIIIIdoooo",
"oooodIIIIIIIIIZo..Mm...CIIIIIIIIIdoooo",
"oooodIIIIIIIIPs.O*HH&oosIIIIIIIIIdoooo",
"oooodIIIIIIIIP,OorIIroo;IIIIIIIIIdoooo",
"oooodIIIIIIIIVO..ammpoooNIIIIIIIIdoooo",
"ooOOdIIIIIIPPi.OO.O.oooorIIIIIIIIdoooo",
"oooodIIIIIIIH;...Ooooooo&HIIIIIIIdoooo",
"oooodIIIIIIIm...dzzzzsoOocIIIIIIIdoooo",
"oooodIIIIIIIq..;IIIIIH;.o9IIIIIIIdoooo",
"oooosIIIIIIF<:;sIIIIIIp;;,DIIIIIIdoooo",
"oooodIIIIIIIIIIIIIIIIIIIIIIIIIIIIdoooo",
"oooodIIIIIIIIIIIIIIIIIIIIIIIIIIIIdoooo",
"oooodIIIIIIIIIIIIIIIIIIIIIIIIIIIIdoooo",
"oooodIIIIIIIIIIIIIIIIIIIIIIIIIIIIdoooo",
"oooodIIIIIIIIIIIIIIIIIIIIIIIIIIIIdoooo",
"oooodIIIIIIIIIIIIIIIIIIIIIIIIIIIIdoooo",
"oooodIIIIIIIIIIIIIIIIIIIIIIIIIIIIdoooo",
"oooodIIIIIIIIIIIIIIIIIIIIIIIIIIIIsoooo",
"oooosYYYUUUUvvvvvvvvvvvvvvYYUUYYYsO+oo",
"oooo8vvvvvvvvvvvvvvvvvvvvvvvvvvvv7 OoO",
"oooo4vvvvvvvvvvvvvvvvvvvvvvvvvvvv4ooo.",
"oooo+hvvvvvvvvvvvvvvvvvvvvvvvvvvh+oooo",
"Toooo+59888988889888888988988894+.oooT",
"ToooooooO+OoO+oOooO+O+OoOOooO+oooOoooT",
"TTooooooooooooooooooooooOooo+OooooooTT",
"TTTooooooooooooooooooooooooo .oooooTTT",
"TTTTTooooooooooooooooooooooooooooTTTTT"
};
