/* XPM */
static char *a_light[] = {
/* columns rows colors chars-per-pixel */
"38 41 79 1 ",
"  c #43495F",
". c #434A5E",
"X c #424A5F",
"o c #434A5F",
"O c #424A60",
"+ c #444B60",
"@ c #454C61",
"# c #464D61",
"$ c #464D62",
"% c #4B5266",
"& c #4C5266",
"* c #4C5366",
"= c #4D5367",
"- c #4E5568",
"; c #50566A",
": c #545A6D",
"> c #585E71",
", c #595F71",
"< c #5B6173",
"1 c #5C6274",
"2 c #616778",
"3 c #646A7B",
"4 c #696E7C",
"5 c #6A6E7C",
"6 c #6A6F7D",
"7 c #707584",
"8 c #727785",
"9 c #757A89",
"0 c #7A7D89",
"q c #787D8B",
"w c #797E8C",
"e c #7A7F8D",
"r c #7C808E",
"t c #7E8390",
"y c #7F8391",
"u c #808491",
"i c #838894",
"p c #898D99",
"a c #8A8E9A",
"s c #8B8F9B",
"d c #8E929D",
"f c #8F929E",
"g c #8F939E",
"h c #91949F",
"j c #9195A0",
"k c #9B9DA2",
"l c #9C9DA2",
"z c #9A9EA9",
"x c #9B9EAA",
"c c #9B9FAA",
"v c #9C9FA9",
"b c #9FA2AB",
"n c #A4A7AF",
"m c #A9ACB4",
"M c #ACAFB6",
"N c #AFB2B9",
"B c #B0B2B9",
"V c #B3B5BB",
"C c #B6B8BE",
"Z c gray72",
"A c #BBBCC2",
"S c #BDBEC3",
"D c #BEC0C5",
"F c #C9CACE",
"G c #CECFD2",
"H c #D4D5D7",
"J c #D8D8DA",
"K c #DCDCDE",
"L c #DEDEDF",
"P c #DFDFE0",
"I c #DFE0E0",
"U c #E1E1E2",
"Y c #E2E2E2",
"T c #E2E2E3",
"R c gray89",
"E c #E4E4E4",
"W c gray90",
"Q c white",
"! c None",
/* pixels */
"!!!!!OooooooooooooooooooooooooooO!!!!!",
"!!!oooooooooooooooooooooooooooooooo!!!",
"!!.oooooooOOoooooooooo Ooooooooooooo!!",
"!.OooooooooOoooooooooooOooooooooooooo!",
"!oooo#ehjffjfjfjhfjhffjffjfhhhfq#.Ooo!",
"Oooo#DEEWWEEEEEWEEWWEEWWEEEWEEWES#oooo",
"oooorWEEWWWWEWWWEWWWEWWWEWWWWWWWEeooo.",
"oooOjWEEWWWWWWWWEWWWEWWWWWWWWWWWEgoooO",
"oooogEEWWWWWWWWWWWWWWWWWWWWWWWWWEh+.O.",
"oooojEEEWWWWWWWWPnnnnLWWWWWWWWWWEg.OoO",
"oooojEWWWWWWWWWEMooo mWWWWWWWWWWEhO.oo",
"oooojWWWWWWWWWWE8oooo7WWWWWWWWWWEhoOoo",
"oooohEWWWWWWWWEJ@oooo@HWWWWWWWWWEh+.oo",
"oooohEWWWWWWWWEboo=&oovWWWWWWWWWEg.Ooo",
"oooogEEWWWWWWWW3ooue o2WWWWWWWWWEhoooo",
"oooogEEEWWWWWWH.ooCVOOOFWWWWWWWWEhoooo",
"oooojWWWWWWEEEhoo=RY&oohEEWWWWWWEh+.O.",
"oooojWWWWWWEEE,oouWWuoo:EEWWWWWWEg.OoO",
"ooOogEWWWWEEEFooopBBpoooAEEWWWWWEhO.oo",
"oo.OjEWWWWEEEuoooooooooouEWWWWWWEhoOoo",
"oooogEEWWWWWY-ooooOooooo&PWWWWWWEh+.oo",
"oooojEEEWWWWBooohnnnnhooONWEWWWWEg.Ooo",
"oooojEWWWEWW9oO;RWWWER;oo8EEWWWWEhoooo",
"oooojWWWWEEY1,<jEEWWWWp,,<PWWWWWEhoooo",
"oooohEEEWWWWWWWWWWWWWWWWEEWWWWWWEhOooo",
"oooogEEEWWWWWWWWWWWWWWWWWWWWWWWWEg.Ooo",
"oooojWWWWWWWWWWWWWWWWWWWWWWWWWWWEhoooo",
"oooojWWWWWWWWWWWWWWWWWWWWWWWWWWWEhoooo",
"oooohEEEWWWWWWEEWWWWEWWWWWWWWWWWEhOooo",
"oooogEWEWWWWWWWEWWWWEEWWWWWWWWWWEgoooo",
"oooojWWWWWEEWWEEEEWWEEEEWWWWWWWWEhoooo",
"oooOjWWWWWEEQQQQQQQQQQQQQQWWWWWWEhoooo",
"ooooxQQQQQQQQQQQQQQQQQQQQQQQQQQQQx..oo",
"ooooxQQQZZZZZZZZZZZZZZZZZZZZZZQQQxO.oO",
"oooo6ZZZZZZZZZZZZZZZZZZZZZZZZZZZZ6.Oo.",
"oooo#lZZZZZZZZZZZZZZZZZZZZZZZZZZk#oooo",
"!oooo#60000000000000000000000006Ooooo!",
"!ooooooooooo..oOooooooooO.ooooooooooo!",
"!!oooooooooooooooooooooooooooooooooo!!",
"!!!oooooooooooooooooooooooooooooooo!!!",
"!!!!!oooooooooooooooooooooooooooo!!!!!"
};
