/* XPM */
static char *apple_2[] = {
/* columns rows colors chars-per-pixel */
"32 32 6 1 ",
"  c #202830",
". c #531D22",
"X c #9A323B",
"o c #C43E4A",
"O c white",
"+ c None",
/* pixels */
"++++++++++++++++++++++++++++++++",
"++++++++++++++++++++++++++++++++",
"++++++++++++++++++++++++++++++++",
"++++++++++++++++++++++++++++++++",
"++++++++++++++++++++++++++++++++",
"++++++++++++++OOO+++++++++++++++",
"+++++++++++++O   O++++++++++++++",
"++++++++++OOOOO  OOOO+++++++++++",
"++++++++OOXXXXX  XXXXOO+++++++++",
"+++++++OXXoooXX  XXooXXO++++++++",
"++++++OXoooooooooooooooXO+++++++",
"++++++OXoooooooooooooooXO+++++++",
"+++++OXoooooooooooooooooXO++++++",
"+++++OXoooooooooooooooooXO++++++",
"+++++OXooooo Ooooooooo OXO++++++",
"+++++OXooooo  oooooooo  XO++++++",
"+++++OXooooooooooo  ooooXO++++++",
"+++++OXoooooooooooooooooXO++++++",
"++++++OXoooooooooooooooXO+++++++",
"++++++O.ooooooooooooooo.O+++++++",
"+++++++O.ooooooooooooo.O++++++++",
"+++++++O.XoooooooooooX.O++++++++",
"++++++++O..XXXXXXXXX..O+++++++++",
"+++++++++OO.........OO++++++++++",
"+++++++++++OOOOOOOOO++++++++++++",
"++++++++++O  OOOOOOOO+++++++++++",
"+++++++++O           O++++++++++",
"++++++++++OOOOOOOOOOO+++++++++++",
"++++++++++++++++++++++++++++++++",
"++++++++++++++++++++++++++++++++",
"++++++++++++++++++++++++++++++++",
"++++++++++++++++++++++++++++++++"
};
