/* XPM */
static char *D_2[] = {
/* columns rows colors chars-per-pixel */
"20 20 6 1 ",
"  c black",
". c #AE411A",
"X c #CC8A1E",
"o c #D4A71F",
"O c #DDD021",
"+ c None",
/* pixels */
"++++++++++++++++++++",
"++++++++++++++++++++",
"            ++++++++",
"            ++++++++",
"  OOOOOOOO    ++++++",
"  OOOOOOOO    ++++++",
"  oooo..oooo  ++++++",
"  oooo..oooo  ++++++",
"  oooo  oooo  ++++++",
"  oooo  oooo  ++++++",
"  XXXX  XXXX  ++++++",
"  XXXX  XXXX  ++++++",
"  XXXXXXXX..  ++++++",
"  XXXXXXXX..  ++++++",
"  ........    ++++++",
"  ........    ++++++",
"            ++++++++",
"            ++++++++",
"++++++++++++++++++++",
"++++++++++++++++++++"
};
