/* XPM */
static char *D_3[] = {
/* columns rows colors chars-per-pixel */
"10 10 4 1 ",
"  c black",
". c #AE411A",
"X c #D4A71F",
"o c None",
/* pixels */
"oooooooooo",
"      oooo",
" XXXX  ooo",
" XX.XX  oo",
" XX.XX. oo",
" XX.XX. oo",
" XXXX.. oo",
"  ....  oo",
"o      ooo",
"oooooooooo"
};
