/* XPM */
static char *D_4[] = {
/* columns rows colors chars-per-pixel */
"10 10 6 1 ",
"  c black",
". c #AE411A",
"X c #CC8A1E",
"o c #D4A71F",
"O c #DDD021",
"+ c None",
/* pixels */
"++++++++++",
"      ++++",
" OOOO  +++",
" oo.oo  ++",
" oo.oo. ++",
" XX.XX. ++",
" XXXX.. ++",
"  ....  ++",
"+      +++",
"++++++++++"
};
