/* XPM */
static char *D_5[] = {
/* columns rows colors chars-per-pixel */
"10 10 4 1 ",
"  c black",
". c #AE411A",
"X c #D4A71F",
"o c None",
/* pixels */
"oooooooooo",
"o      ooo",
"  XXXX  oo",
" .XX.XX oo",
" .XX.XX oo",
" .XX.XX oo",
" .XXXX  oo",
" ....  ooo",
"      oooo",
"oooooooooo"
};
