/* XPM */
static char *d_dark[] = {
/* columns rows colors chars-per-pixel */
"38 41 67 1 ",
"  c #43495F",
". c #434A5E",
"X c #424A5F",
"o c #434A5F",
"O c #424A60",
"+ c #444B60",
"@ c #444B61",
"# c #454C60",
"$ c #464D62",
"% c #474E63",
"& c #484F65",
"* c #4A5166",
"= c #4B5167",
"- c #4C5368",
"; c #4E546A",
": c #525A6F",
"> c #535A6F",
", c #505870",
"< c #515870",
"1 c #515970",
"2 c #535A70",
"3 c #545A70",
"4 c #555C72",
"5 c #565D74",
"6 c #565E77",
"7 c #575E77",
"8 c #595F75",
"9 c #596076",
"0 c #5A6177",
"q c #5B6278",
"w c #5D647A",
"e c #60677D",
"r c #60677E",
"t c #61687E",
"y c #646A81",
"u c #646B81",
"i c #636A85",
"p c #636B85",
"a c #676D84",
"s c #6C7289",
"d c #6E748B",
"f c #6F758C",
"g c #71788F",
"h c #72788F",
"j c #6D7592",
"k c #757B93",
"l c #757C93",
"z c #797E95",
"x c #7A7F96",
"c c #798097",
"v c #7E849B",
"b c #7E849C",
"n c #7F859D",
"m c #80869D",
"M c #81879F",
"N c #8187A0",
"B c #8289A0",
"V c #848AA2",
"C c #858CA3",
"Z c #878DA5",
"A c #898FA6",
"S c #888EA7",
"D c #898FA7",
"F c #8A90A8",
"G c #A7ADBE",
"H c #A8ACBD",
"J c None",
/* pixels */
"JJJJJOooooooooooooooooooooooooooOJJJJJ",
"JJJooooooooooooooooooooooooooooooooJJJ",
"JJ.oooooooooooooooooooooooooooooooooJJ",
"J.OooooooooOoooooooooooooooooooooooooJ",
"Joooo#qyyyyyyyyyyyyyyyyyyyyyyyyq#OoooJ",
"Oooo#cFFFFFFFFFFFFFFFFFFFFFFFFFFx#oooo",
"ooooqFFFFFFFFFFFFFFFFFFFFFFFFFFFF9ooo.",
"ooooyFFFFFFFFFFFFFFFFFFFFFFFFFFFFuoooO",
"oooouFFFFFFFFFFFFFFFFFFFFFFFFFFFFuoooo",
"oooouFFFFFFFCdddddfkNFFFFFFFFFFFFuoooo",
"oooouFFFFFFFn.oooooo+3lFFFFFFFFFFuoooo",
"oooouFFFFFFFmooooooooo+yFFFFFFFFFuoooo",
"ooooyFFFFFFFm.oo9ye>oooodSFFFFFFFuoooo",
"oooouFFFFFFFmOoohFFFx*oo%SFFFFFFFuoooo",
"oooouFFFFFFFnOoohFFFFhooofFFFFFFFuoooo",
"oooouFFFFFFFn.oohFFFSS%ooeFFFFFFFuoooo",
"ooooyFFFFFFFmooohFFFFF;oo9FFFFFFFuoooo",
"oooouFFFFFFFbooohFFFFF*oowFFFFFFFuoooo",
"oooouFFFFFFFmOoohFFFFmoooaFFFFFFFuoooo",
"ooO.uFFFFFFFmooohFFFS8ooovFFFFFFFuoooo",
"ooooyFFFFFFFn.Oodmbf3+oo5FFFFFFFFuoooo",
"ooooyFFFFFFFmoooO.o+.+O=VFFFFFFFFuoooo",
"ooooyFFFFFFFm+ooooo+O+3BFFFFFFFFFuoooo",
"ooooyFFFFFFFm------3exFFFFFFFFFFFuoooo",
"oooouFFFFFFFFFFFFFFFFFFFFFFFFFFFFuoooo",
"oooouFFFFFFFFFFFFFFFFFFFFFFFFFFFFuoooo",
"oooouFFFFFFFFFFFFFFFFFFFFFFFFFFFFuoooo",
"oooouFFFFFFFFFFFFFFFFFFFFFFFFFFFFuoooo",
"oooouFFFFFFFFFFFFFFFFFFFFFFFFFFFFuoooo",
"oooouFFFFFFFFFFFFFFFFFFFFFFFFFFFFuoooo",
"oooouFFFFFFFFFFFFFFFFFFFFFFFFFFFFuoooo",
"oooouFFFFFFFFFFFFFFFFFFFFFFFFFFFFyoooo",
"ooooyHHHHGGGjjjjjjjjjjjjjjGGHGHHHyOOoo",
"oooo7jjjjjjjjjjjjjjjjjjjjjjjjjjjj7.+oO",
"oooo1jjjjjjjjjjjjjjjjjjjjjjjjjjjj<Ooo.",
"ooooOijjjjjjjjjjjjjjjjjjjjjjjjjji+oooo",
"Joooo+1878787777877878787786678<+.oooJ",
"JoooooooOOOoO+oOooOOOOOoOOooOOoooOoooJ",
"JJooooooOoooooooooooOooooooo oooooooJJ",
"JJJooooooooooooooooooooooooooooooooJJJ",
"JJJJJooooooooooooooooooooooooooooJJJJJ"
};
