/* XPM */
static char *d_light[] = {
/* columns rows colors chars-per-pixel */
"38 41 75 1 ",
"  c #43495F",
". c #434A5E",
"X c #424A5F",
"o c #434A5F",
"O c #424A60",
"+ c #444B60",
"@ c #454C61",
"# c #464D61",
"$ c #464D62",
"% c #4A5165",
"& c #4C5366",
"* c #4F5569",
"= c #53596C",
"- c #545A6D",
"; c #595F71",
": c #5B6173",
"> c #666C7C",
", c #686D7D",
"< c #696E7C",
"1 c #6A6E7C",
"2 c #6A6F7D",
"3 c #686E7E",
"4 c #6A6F7F",
"5 c #6C7181",
"6 c #707585",
"7 c #757988",
"8 c #757A89",
"9 c #767B89",
"0 c #7A7D89",
"q c #787D8B",
"w c #797E8C",
"e c #7A7F8D",
"r c #7E8390",
"t c #858A96",
"y c #868A97",
"u c #888C98",
"i c #8E929D",
"p c #8F929E",
"a c #8F939E",
"s c #9497A2",
"d c #9B9DA2",
"f c #9C9DA2",
"g c #9A9EA9",
"h c #9B9EAA",
"j c #9B9FAA",
"k c #A0A3AC",
"l c #A4A7AF",
"z c #A5A7B0",
"x c #A7A9B2",
"c c #A7AAB2",
"v c #ADB0B7",
"b c #AEB0B7",
"n c #AFB1B8",
"m c #B6B8BE",
"M c #B6B8BF",
"N c gray72",
"B c #BDBEC3",
"V c #BEC0C5",
"C c #BFC0C5",
"Z c #C9CACE",
"A c #CACBCF",
"S c #CCCDD1",
"D c #CECFD2",
"F c #CFD0D3",
"G c #D1D2D5",
"H c #D4D5D7",
"J c #D6D7D9",
"K c #DBDCDD",
"L c #DEDEDF",
"P c #E2E2E2",
"I c #E2E2E3",
"U c #E4E4E4",
"Y c gray90",
"T c white",
"R c None",
/* pixels */
"RRRRROooooooooooooooooooooooooooORRRRR",
"RRRooooooooooooooooooooooooooooooooRRR",
"RR.ooooooo  ooooooooooO@ooooooooooooRR",
"R.OoooooO.  oooooooo OO@oooooooooooooR",
"Roooo#epaaasaaaaapsuspsupsusapp0#OOooR",
"OooO#CYYYYUUUYYYUUYYUUYYUYYYYYYYB#.Ooo",
"ooO.eYYYYYYYUYYYUYYYUYYYUUYYYYYYY0ooo.",
"oo..pYYYYYYYYYYYYYYYUYYYYYYYYYYYYpoooO",
"ooooaYYYYYYYYYYYYYUUYYYYYYYYYYYYYaoooo",
"ooooaYYYYYYYKlllzzxmGYYYYYYYYYYYYaoooo",
"ooooaYYYYYYYSooooooo@,mUYYYYYYYYYaoooo",
"ooooaYYYYYYYSooooooo @oaYYYYYYYYYaoooo",
"ooooaYYYYYYYSooo7ay,@ oozYYYYYYYYaoooo",
"ooooaYYYYYYYSooonYYYC*oo&LYYYYYYYaoooo",
"ooooaYYYYYYYSooonYYYYb  OxYYYYYYYaoooo",
"ooooaYYYYYYYSooonYYYYI%O@uYYYYYYYaoooo",
"ooooaYYYYYYYSooonYYYYY:oo7YYYYYYYaoooo",
"ooooaYYYYYYYSooonYYYYY-o tYYYYYYYaoooo",
"ooooaYYYYYYYSooonYYYYSoo sPYYYYYYaoooo",
"ooooaYYYYYYYSooonYYYP7oo.ZYYYYYYYaoooo",
"ooooaYYYYYYYS.OokFAb>ooo5YYYYYYYYaoooo",
"ooooaYYYYYYYS..Oooooooo-JYYYYYYYYaoooo",
"ooooaYYYYYYYS.O.ooo@oo5HYYYYYYYYYaoooo",
"ooooaYYYYYYYG;;;;;:,yCUYYYYYYYYYYaoooo",
"ooooaYYYYYYYYYYYYYYYYYYYYYYYYYYYYaoooo",
"ooooaYYYYYYYYYYYYYYYYYYYYYYYYYYYYaoooo",
"ooooaYYYYYYYYYYYYYYYYYYYYYYYYYYYYaoooo",
"ooooaYYYYYYYYYYYYYYYYYYYYYYYYYYYYaoooo",
"ooooaYYYYYYYYYYYYYYYYYYYYYYYYYYYYaoooo",
"ooooaYYYYYYYYYYYYYYYYYYYYYYYYYYYYaoooo",
"ooooaYYYYYYYYYYYYYYYYYYYYYYYYYYYYaoooo",
"ooooaYYYYYYYTTTTTTTTTTTTTTYYYYYYYaoooo",
"oooohTTTTTTTTTTTTTTTTTTTTTTTTTTTTgoooo",
"oooohTTTNNNNNNNNNNNNNNNNNNNNNNTTTgoooO",
"oooo2NNNNNNNNNNNNNNNNNNNNNNNNNNNN,ooo.",
"oooo#fNNNNNNNNNNNNNNNNNNNNNNNNNNf#oooo",
"Roooo#,000000000000000000000000,#.oooR",
"Rooooooooooo..oOooooooooO.ooooooO.oooR",
"RRoooooooooooooooooooooooooooooo.oooRR",
"RRRoooooooooooooooooooooooooooooOooRRR",
"RRRRRooooooooooooooooooooooooooooRRRRR"
};
