/* XPM */
static char *duck_1[] = {
/* columns rows colors chars-per-pixel */
"32 32 11 1 ",
"  c black",
". c #AB4818",
"X c #D25F27",
"o c #AE8021",
"O c #DBA637",
"+ c #FF8449",
"@ c #FCC552",
"# c #FFC1A3",
"$ c #FFE8B9",
"% c white",
"& c None",
/* pixels */
"&&&&&&&&&&&&&&&&&&&&&&&&&&&&&&&&",
"&&&&&&&&&&&&&&&&&&&&&&&&&&&&&&&&",
"&&&&&&&&&&&&&&&&&&&&&&&&&&&&&&&&",
"&&&&&&&&&&&&&&&&&&&&&&&&&&&&&&&&",
"&&&&&&&&&&&&&&&&&&&&&&&&&&&&&&&&",
"&&&&&&&&&&&&&&&&&&&&&&&&&&&&&&&&",
"&&&&&&&&&&&&&&&&&&&&&&&&&&&&&&&&",
"&&&&&&&&&&&&&&&%%%%%%%&&&&&&&&&&",
"&&&&&&&&&&&&&&%ooooooo%&&&&&&&&&",
"&&&&&&&&&&&&&%o$$$$$$$o%&&&&&&&&",
"&&&&&&&&&&&&%o$@@@@@@@$o%&&&&&&&",
"&&&&&&&&&&&&%o@@@@@@@@@o%&&&&&&&",
"&&&&&&&&&&&&%o %@@@@@@@o%&&&&&&&",
"&&&&&&&&&&&&%o  @@@.....%&&&&&&&",
"&&&&&&&&&&&&%o@@@@.+++##.%&&&&&&",
"&&&&&&&&&&&&%o@@@@.XXXXXX.%&&&&&",
"&&&&&&&&&&&&%oO@@@O......%&&&&&&",
"&&&&&&&&&%%%&%oO@@OOOo%%%&&&&&&&",
"&&&&&&&&%ooo%&%oOOOOOo%&&&&&&&&&",
"&&&&&&&%o$$$o%%oOOOOOo%&&&&&&&&&",
"&&&&&&%o$@@@$oo@@@@OOo%&&&&&&&&&",
"&&&&&&%o@oo@@@$$@@@@OOo%&&&&&&&&",
"&&&&&&%oo@@@@@@@$@@@@Oo%&&&&&&&&",
"&&&&&&%oo@@@@@@@@@@@@@o%&&&&&&&&",
"&&&&&&%oo@@@@@@@@@@@@Oo%&&&&&&&&",
"&&&&&&%oOo@@@@@@@o@@OOo%&&&&&&&&",
"&&&&&&&%oOoooooooOOOOo%&&&&&&&&&",
"&&&&&&&&%oOOOOOOOOOOo%&&&&&&&&&&",
"&&&&&&&&&%oooooooooo%&&&&&&&&&&&",
"&&&&&&&&%XXX%%%%%%%..%&&&&&&&&&&",
"&&&&&&&&%XXXX%&&&&%...%&&&&&&&&&",
"&&&&&&&&&%%%%&&&&&&%%%&&&&&&&&&&"
};
