/* XPM */
static char *grass[] = {
/* columns rows colors chars-per-pixel */
"32 32 4 1 ",
"  c #4E8400",
". c #81BA44",
"X c #9FDF5B",
"o c #C1F27A",
/* pixels */
"................................",
"................................",
"................................",
"... ... ..........ooX...........",
".... . ............oXX..Xoo.....",
".... . ...........  XX.XXo......",
"...................  ..XX  .....",
"........................  ......",
"................................",
"................................",
"................................",
"................................",
".......... .....................",
"........... ....................",
"........... ....................",
"................................",
"................................",
"...........................Xoo..",
"..........................XXo...",
"..........................XX  ..",
"................... .......  ...",
"................... ............",
"................................",
"................................",
"................................",
"................................",
".......................Xoo......",
".................ooX..XXo.......",
"..................oXX.XX  ......",
".................  XX..  .......",
"..................  ............",
"................................"
};
