/* XPM */
static char *lemon_2[] = {
/* columns rows colors chars-per-pixel */
"32 32 6 1 ",
"  c #202830",
". c #91843B",
"X c #C8B654",
"o c #E0CC5D",
"O c white",
"+ c None",
/* pixels */
"++++++++++++++++++++++++++++++++",
"++++++++++++++++++++++++++++++++",
"++++++++++++++++++++++++++++++++",
"++++++++++++++++++++++++++++++++",
"++++++++++++++++++++++++++++++++",
"+++++++++++++OOOOO++++++++++++++",
"++++++++++++OXXXXXO+++++++++++++",
"+++++++++++OXoooooXO++++++++++++",
"++++++++++OXoooooooXO+++++++++++",
"+++++++++OXoooooooooXO++++++++++",
"++++++++OXoooooooooooXO+++++++++",
"++++++++OXoooooooooooXO+++++++++",
"+++++++OXoooooooooooooXO++++++++",
"+++++++OXoo Oooooooo OXO++++++++",
"+++++++OXoo  ooooooo  XO++++++++",
"+++++++OXooooooo  ooooXO++++++++",
"+++++++OXoooooooooooooXO++++++++",
"+++++++OXoooooooooooooXO++++++++",
"++++++++OXoooooooooooXO+++++++++",
"++++++++OXoooooooooooXO+++++++++",
"+++++++++O.ooooooooo.O++++++++++",
"++++++++++O.XoooooX.O+++++++++++",
"+++++++++++O.XXXXX.O++++++++++++",
"++++++++++++O.....O+++++++++++++",
"+++++++++++OOOOOOOOO++++++++++++",
"++++++++++O   OOOO  O+++++++++++",
"+++++++++++O       O++++++++++++",
"++++++++++++OOOOOOO+++++++++++++",
"++++++++++++++++++++++++++++++++",
"++++++++++++++++++++++++++++++++",
"++++++++++++++++++++++++++++++++",
"++++++++++++++++++++++++++++++++"
};
