/* XPM */
static char *mechant_2[] = {
/* columns rows colors chars-per-pixel */
"40 40 8 1 ",
"  c black",
". c #2C2C2C",
"X c gray33",
"o c #D090BC",
"O c #C0C0C0",
"+ c #F9F9F9",
"@ c white",
"# c None",
/* pixels */
"########################################",
"########################################",
"########################################",
"########################################",
"########################################",
"########################################",
"########################################",
"########################################",
"########################################",
"########################################",
"########################################",
"########################################",
"########################################",
"########################################",
"########################################",
"########################################",
"########################################",
"########################################",
"########################################",
"########################################",
"########################################",
"##########@@@@@@@#######################",
"#########@       @######################",
"########@ +++++++ @#####@@@#############",
"#######@ +OOOOOOO+ @###@   @############",
"#######@ OOOOOOOOO @##@ ++ @############",
"#######@ OOO @OOO  @#@ +OX @############",
"#######@ OOO  OOO  @@ +OX @#############",
"######@@ XOooOOOOX @ +OX @##############",
"#####@    XOOOOOX @ +OX @###############",
"####@ ++++ XXXXX . +OX @################",
"###@ ++++++     .X OX @#################",
"###@ ++++++ OOOO .X  @##################",
"###@ O++++O OOOO .XXX @#################",
"####@ O++O OOOOO . .. @#################",
"#####@ OO @ XX    @  @##################",
"######@  @#@   @@@#@@###################",
"#######@@###@@@#########################",
"########################################",
"########################################"
};
