/* XPM */
static char *mechant_1[] = {
/* columns rows colors chars-per-pixel */
"40 40 9 1 ",
"  c black",
". c #2C2C2C",
"X c gray33",
"o c #AF6F9B",
"O c #D090BC",
"+ c #C0C0C0",
"@ c #F9F9F9",
"# c white",
"$ c None",
/* pixels */
"$$$$$$$$$$$$$$$$$$$$$$$$$$$$$$$$$$$$$$$$",
"$$$$$$$$$$$$$$$$$$$$$$$$$$$$$$$$$$$$$$$$",
"$$$$$$$$$$$$$$$$$$$$$$$$$$$$$$$$$$$$$$$$",
"$$$$$$$$$$$$$$$$$$$$$$$$$$$$$$$$$$$$$$$$",
"$$$$$$$$$$$$$$$$$$$$$$$$$$$$$$$$$$$$$$$$",
"$$$$$$$$$$$$$$$$$$$$$$$$$$$$$$$$$$$$$$$$",
"$$$$$$$$$$$$$$$$$$$$$$$$$$$$$$$$$$$$$$$$",
"$$$$$$$$$$$$$$$$$$$$$$$$$$$$$$$$$$$$$$$$",
"$$$$$$$$$$$$$$$$$$$$$$$$$$$$$$$$$$$$$$$$",
"$$$$$$$$$$$$$$$$$$$$$$$$$$$$$$$$$$$$$$$$",
"$$$$$$$$$$$$$$$$$$$$$$$$$$$$$$$$$$$$$$$$",
"$$$$$$$$$$$$$$$$$$$$$$$$$$$$$$$$$$$$$$$$",
"$$$$$$$$$$$$$$$$$$$$$$$$$$$$$$$$$$$$$$$$",
"$$$$$$$$$$$$$$$$$$$$$$$$$$$$$$$$$$$$$$$$",
"$$$$$$$$$$$$$$$$$$$$$$$$$$$$$$$$$$$$$$$$",
"$$$$$$$$$$$$$$$$$$$$$$$$$$$$$$$$$$$$$$$$",
"$$$$$$$$$$$$$$$$$$$$$$$$$$$$$$$$$$$$$$$$",
"$$$$$$$$$$$$$$$$$$$$$$$$$$$$$$$$$$$$$$$$",
"$$$$$$$$$$$$$$$$$$$$$$$$$$$$$$$$$$$$$$$$",
"$$$$$$$$$$$$$$$$$$$$$$$$$$$$$$$$$$$$$$$$",
"$$$$$$$$$$#######$$$$$$$$$$$$$$$$$$$$$$$",
"$$$$$$$$$#       #$$$$$$$$$$$$$$$$$$$$$$",
"$$$$$$$$# @@@@@@@ #$$$$$$###$$$$$$$$$$$$",
"$$$$$$$# @+++++++@ #$$$$#   #$$$$$$$$$$$",
"$$$$$$$# +++++++++ #$$$# @@ #$$$$$$$$$$$",
"$$$$$$$# ++ #+++ # #$$# @+X #$$$$$$$$$$$",
"$$$$$$$# ++  +++   #$# @+X #$$$$$$$$$$$$",
"$$$$$### XOO+++++o ## @+X #$$$$$$$$$$$$$",
"$$$$#     X+++++X  # @+X #$$$$$$$$$$$$$$",
"$$$# @@@@  XXXXX .. @+X #$$$$$$$$$$$$$$$",
"$$# @@@@@@       .X +X #$$$$$$$$$$$$$$$$",
"$$# @@@@@@ +++++  XX  #$$$$$$$$$$$$$$$$$",
"$$# +@@@@+ +++++ .XXXX #$$$$$$$$$$$$$$$$",
"$$$# +@@+  +++++ .. .. #$$$$$$$$$$$$$$$$",
"$$$$# ++ # XX   #  #  #$$$$$$$$$$$$$$$$$",
"$$$$$#  #$#   .. ##$##$$$$$$$$$$$$$$$$$$",
"$$$$$$##$$$###  #$$$$$$$$$$$$$$$$$$$$$$$",
"$$$$$$$$$$$$$$##$$$$$$$$$$$$$$$$$$$$$$$$",
"$$$$$$$$$$$$$$$$$$$$$$$$$$$$$$$$$$$$$$$$",
"$$$$$$$$$$$$$$$$$$$$$$$$$$$$$$$$$$$$$$$$"
};
