/* XPM */
static char *mechant_1[] = {
/* columns rows colors chars-per-pixel */
"32 32 11 1 ",
"  c black",
". c #44251A",
"X c #6E4E2D",
"o c #88643F",
"O c #BB6E52",
"+ c #D9A066",
"@ c #E0B489",
"# c #EEC39A",
"$ c #E5A1C2",
"% c white",
"& c None",
/* pixels */
"&&&&&&&&&&&&&&&&&&&&&&&&&&&&&&&&",
"&&&&&&&&&&&&&&&&&&&&&&&&&&&&&&&&",
"&&&&&&&&&&&&&&&&&&&&&&&&&&&&&&&&",
"&&&&&&&&&&&&&&&&&&&&&&&&&&&&&&&&",
"&&&&&&&&&&&&&&&&&&&&&&&&&&&&&&&&",
"&&&&&&&&&&&&&&&&&&&&&&&&&&&&&&&&",
"&&&&&&&&&&&&&&&&&&&&&&&&&&&&&&&&",
"&&&&&&&&&%%%%%%%%&&%%%%%&&&&&&&&",
"&&&&&&&&%oooooooo%%ooooo%&&&&&&&",
"&&&&&&&%o++++++++oo+++++o%&&&&&&",
"&&&&&&%o++++#####++#####+o%&&&&&",
"&&&&&&%X+++###%%#########X%&&&&&",
"&&&&&&%X+++#%############X%&&&&&",
"&&&&&&%X+++##############X%&&&&&",
"&&&&&&%X+++### %##### %##X%&&&&&",
"&&&&&&%X+++###  #####  ##X%&&&&&",
"&&&&&&%.OOO##$  #####  $#.%&&&&&",
"&&&&&&&%.+++#$$###++##$$.%&&&&&&",
"&&&&&&&%X+++############X%&&&&&&",
"&&&&&&&%X+++############X%&&&&&&",
"&&&&&&&%X+++############X%&&&&&&",
"&&&&&&&%X+++############X%&&&&&&",
"&&&&&&&%.OOO@@@@@@@@@@@@.%&&&&&&",
"&&&&&&&&%...............%&&&&&&&",
"&&&&&&&&&%%% %%%%%%% %%%&&&&&&&&",
"&&&&&&&&&&% %&&&&&&% %&&&&&&&&&&",
"&&&&&&&&&&&%&&&&&&&% %&&&&&&&&&&",
"&&&&&&&&&&&&&&&&&&&&%&&&&&&&&&&&",
"&&&&&&&&&&&&&&&&&&&&&&&&&&&&&&&&",
"&&&&&&&&&&&&&&&&&&&&&&&&&&&&&&&&",
"&&&&&&&&&&&&&&&&&&&&&&&&&&&&&&&&",
"&&&&&&&&&&&&&&&&&&&&&&&&&&&&&&&&"
};
