/* XPM */
static char *orange_2[] = {
/* columns rows colors chars-per-pixel */
"32 32 6 1 ",
"  c #202830",
". c #9B622E",
"X c #C28249",
"o c #E49A58",
"O c white",
"+ c None",
/* pixels */
"++++++++++++++++++++++++++++++++",
"++++++++++++++++++++++++++++++++",
"++++++++++++++++++++++++++++++++",
"++++++++++++++++++++++++++++++++",
"++++++++++++++++++++++++++++++++",
"++++++++++++++++++++++++++++++++",
"++++++++++++++++++++++++++++++++",
"+++++++++++++OOOOOO+++++++++++++",
"+++++++++++OOXXXXXXOO+++++++++++",
"++++++++++OXXooXXooXXO++++++++++",
"+++++++++OXooooooooooXO+++++++++",
"++++++++OXooooooooooooXO++++++++",
"++++++++OXooooooooooooXO++++++++",
"+++++++OXooooooooooooooXO+++++++",
"+++++++OXooo Oooooooo OXO+++++++",
"+++++++OXooo  ooooooo  XO+++++++",
"+++++++OXoooooooo  ooooXO+++++++",
"+++++++OXooooooooooooooXO+++++++",
"+++++++OXooooooooooooooXO+++++++",
"++++++++OXooooooooooooXO++++++++",
"++++++++O.oooooooooooo.O++++++++",
"+++++++++O.XooooooooX.O+++++++++",
"++++++++++O..XXXXXX..O++++++++++",
"+++++++++++OO......OO+++++++++++",
"+++++++++++OOOOOOOOOO+++++++++++",
"++++++++++O    OOOO  O++++++++++",
"+++++++++++O        O+++++++++++",
"++++++++++++OOOOOOOO++++++++++++",
"++++++++++++++++++++++++++++++++",
"++++++++++++++++++++++++++++++++",
"++++++++++++++++++++++++++++++++",
"++++++++++++++++++++++++++++++++"
};
