/* XPM */
static char *pear_2[] = {
/* columns rows colors chars-per-pixel */
"32 32 6 1 ",
"  c #202830",
". c #4C7533",
"X c #6FA54E",
"o c #83BE5F",
"O c white",
"+ c None",
/* pixels */
"++++++++++++++++++++++++++++++++",
"++++++++++++++++++++++++++++++++",
"++++++++++++++++++++++++++++++++",
"++++++++++++++++++++++++++++++++",
"++++++++++++++OOO+++++++++++++++",
"+++++++++++++O   O++++++++++++++",
"+++++++++++++OO  OO+++++++++++++",
"++++++++++++OXX  XXO++++++++++++",
"+++++++++++OXoX  XoXO+++++++++++",
"+++++++++++OXooooooXO+++++++++++",
"++++++++++OXooooooooXO++++++++++",
"+++++++++OXooooooooooXO+++++++++",
"+++++++++OXooooooooooXO+++++++++",
"++++++++OXooooooooooooXO++++++++",
"++++++++OXoo Ooooooo OXO++++++++",
"++++++++OXoo  oooooo  XO++++++++",
"++++++++OXooooooo  oooXO++++++++",
"++++++++OXooooooooooooXO++++++++",
"++++++++OXooooooooooooXO++++++++",
"++++++++O.oooooooooooo.O++++++++",
"+++++++++O.XooooooooX.O+++++++++",
"++++++++++O.XXXXXXXX.O++++++++++",
"+++++++++++O........O+++++++++++",
"++++++++++++OOOOOOOO++++++++++++",
"++++++++++++OOO+++OO++++++++++++",
"+++++++++++O   OOO  O+++++++++++",
"++++++++++++O      O++++++++++++",
"+++++++++++++OOOOOO+++++++++++++",
"++++++++++++++++++++++++++++++++",
"++++++++++++++++++++++++++++++++",
"++++++++++++++++++++++++++++++++",
"++++++++++++++++++++++++++++++++"
};
