/* XPM */
static char *R_1[] = {
/* columns rows colors chars-per-pixel */
"20 20 4 1 ",
"  c black",
". c #AE411A",
"X c #D4A71F",
"o c None",
/* pixels */
"oooooooooooooooooooo",
"oooooooooooooooooooo",
"              oooooo",
"              oooooo",
"  XXXXXXXXXX  oooooo",
"  XXXXXXXXXX  oooooo",
"  XXXX..XXXX  oooooo",
"  XXXX..XXXX  oooooo",
"  XXXXXXXX..  oooooo",
"  XXXXXXXX..  oooooo",
"  XXXX..XXXX  oooooo",
"  XXXX..XXXX  oooooo",
"  XXXX  XXXX  oooooo",
"  XXXX  XXXX  oooooo",
"  ....  ....  oooooo",
"  ....  ....  oooooo",
"              oooooo",
"              oooooo",
"oooooooooooooooooooo",
"oooooooooooooooooooo"
};
