/* XPM */
static char *s_dark[] = {
/* columns rows colors chars-per-pixel */
"38 41 82 1 ",
"  c #43495F",
". c #434A5E",
"X c #424A5F",
"o c #434A5F",
"O c #424A60",
"+ c #444B60",
"@ c #444B61",
"# c #454C60",
"$ c #454D62",
"% c #464D62",
"& c #464E63",
"* c #484E64",
"= c #4B5167",
"- c #4B5267",
"; c #4B5268",
": c #4C5368",
"> c #4C5369",
", c #4E546A",
"< c #4F566C",
"1 c #50576C",
"2 c #52586F",
"3 c #505870",
"4 c #515870",
"5 c #515970",
"6 c #555B71",
"7 c #565C71",
"8 c #555C72",
"9 c #565E77",
"0 c #575E77",
"q c #596076",
"w c #5A6177",
"e c #5B6177",
"r c #5B6278",
"t c #5D637A",
"y c #5F667C",
"u c #60677E",
"i c #61687E",
"p c #636A80",
"a c #646A80",
"s c #646A81",
"d c #646B81",
"f c #636A85",
"g c #636B85",
"h c #676E84",
"j c #686E84",
"k c #697086",
"l c #6B7188",
"z c #6C7289",
"x c #6D738A",
"c c #6E748B",
"v c #70768C",
"b c #70778D",
"n c #71788E",
"m c #6D7592",
"M c #767C94",
"N c #777E96",
"B c #797E95",
"V c #787F96",
"C c #798097",
"Z c #7A8197",
"A c #7A8098",
"S c #7B8098",
"D c #7A8198",
"F c #7C8299",
"G c #7E849B",
"H c #7F859D",
"J c #80869D",
"K c #80869E",
"L c #81879F",
"P c #8288A0",
"I c #8389A1",
"U c #848AA2",
"Y c #868CA4",
"T c #878EA5",
"R c #888DA6",
"E c #888EA6",
"W c #898FA6",
"Q c #898FA7",
"! c #8A90A8",
"~ c #A7ADBE",
"^ c #A8ACBD",
"/ c None",
/* pixels */
"/////OooooooooooooooooooooooooooO/////",
"///oooooooooooooooooooooooooooooooo///",
"//.ooooooooooooooooooooooooooooooooo//",
"/.Ooooooooooooooooooooooooooooooooooo/",
"/oooo#rssssssssssssssssssssssssr+oooo/",
"Oooo#C!!!!!!!!!!!!!!!!!!!!!!!!!!V#oooo",
"oooor!!!!!!!!!!!!!!!!!!!!!!!!!!!!eooo.",
"oooos!!!!!!!!!!!!!!!!!!!!!!!!!!!!doooO",
"ooood!!!!!!!!!!!!Q!Q!Q!!!!!!!!!!!doooo",
"ooood!!!!!!!!!!QVjuuzL!!!!!!!!!!!doooo",
"ooood!!!!!!!!!U6oooo.+iQ!!!!!!!!!doooo",
"ooood!!!!!!!!!2oooooO.+s!!!!!!!!!doooo",
"oooos!!!!!!!!Sooo8Cn#+O#Q!!!!!!!!doooo",
"ooood!!!!!!!!nooov!WzeeeL!!!!!!!!doooo",
"ooood!!!!!!!!V.O.<S!!!!!W!!!!!!!!doooo",
"ooood!!!!!!!!W>.O..2cY!!!!!!!!!!!doooo",
"ooood!!!!!!!!!G=.+.Oo#sQQ!!!!!!!!doooo",
"ooood!!!!!!!!!!Qv8oooO+0!!!!!!!!!doooo",
"ooOod!!!!!!!!!Q!!QPj#+ooS!!!!!!!!doooo",
"oo.+d!!!!!!WQLvzcL!!vooon!!!!!!!!doooo",
"ooood!!!!!!!!VooorQQj+OoM!!!!!!!!doooo",
"ooood!!!!!!!WQ=o++>1O+.;W!!!!!!!!doooo",
"ooood!!!!!!!!!C*ooooo.#V!!!!!!!!!doooo",
"ooood!!!!!!!!!!Us>++=uP!!!!!!!!!!doooo",
"oooos!!!!!!!!!!!!!!!!!!!!!!!!!!!!doooo",
"ooood!!!!!!!!!!!!!!!!!!!!!!!!!!!!doooo",
"ooood!!!!!!!!!!!!!!!!!!!!!!!!!!!!doooo",
"ooood!!!!!!!!!!!!!!!!!!!!!!!!!!!!doooo",
"ooood!!!!!!!!!!!!!!!!!!!!!!!!!!!!doooo",
"ooood!!!!!!!!!!!!!!!!!!!!!!!!!!!!doooo",
"ooood!!!!!!!!!!!!!!!!!!!!!!!!!!!!doooo",
"ooood!!!!!!!!!!!!!!!!!!!!!!!!!!!!doooo",
"oooos^^^^~~~mmmmmmmmmmmmmm^~^~^^^dO.oo",
"oooo0mmmmmmmmmmmmmmmmmmmmmmmmmmmm0oOoO",
"oooo5mmmmmmmmmmmmmmmmmmmmmmmmmmmm5ooo.",
"oooo+fmmmmmmmmmmmmmmmmmmmmmmmmmmg#oooo",
"/oooo+50000000000000000000000005Ooooo/",
"/oooooooooooOooooooooooooOooooooooooo/",
"//oooooooooooooooooooooooooooooooooo//",
"///oooooooooooooooooooooooooooooooo///",
"/////oooooooooooooooooooooooooooo/////"
};
