/* XPM */
static char *s_light[] = {
/* columns rows colors chars-per-pixel */
"38 41 89 1 ",
"  c #43495F",
". c #434A5E",
"X c #424A5F",
"o c #434A5F",
"O c #424A60",
"+ c #444B60",
"@ c #454C61",
"# c #464D61",
"$ c #464D62",
"% c #495064",
"& c #4A5165",
"* c #4B5266",
"= c #4D5367",
"- c #545A6D",
"; c #555B6E",
": c #565C6F",
"> c #585E70",
", c #585E71",
"< c #595F71",
"1 c #5B6173",
"2 c #5F6576",
"3 c #606677",
"4 c #656A7B",
"5 c #696E7C",
"6 c #6A6E7C",
"7 c #6A6F7D",
"8 c #6B7080",
"9 c #6C7181",
"0 c #6D7281",
"q c #767B89",
"w c #7A7D89",
"e c #787D8B",
"r c #797D8B",
"t c #797E8C",
"y c #7A7F8D",
"u c #7E8290",
"i c #838894",
"p c #848895",
"a c #868A97",
"s c #888C98",
"d c #8C909B",
"f c #8D909C",
"g c #8E929D",
"h c #8F929E",
"j c #8F939E",
"k c #9599A3",
"l c #979AA4",
"z c #9B9DA2",
"x c #9C9DA2",
"c c #999DA6",
"v c #9A9EA9",
"b c #9B9EAA",
"n c #9B9FAA",
"m c #9EA1AA",
"M c #A0A3AC",
"N c #A3A5AE",
"B c #A4A7AF",
"V c #A9ACB3",
"C c #AAADB4",
"Z c #ACAFB6",
"A c gray72",
"S c #B8BAC0",
"D c #BBBDC3",
"F c #BDBEC3",
"G c #BDBFC4",
"H c #BEC0C5",
"J c #C0C2C7",
"K c #C1C3C7",
"L c #C2C3C8",
"P c #C2C4C8",
"I c #C4C5C9",
"U c #C9CACD",
"Y c #CCCDD0",
"T c #CECFD2",
"R c #CFD0D3",
"E c #D3D3D6",
"W c #D3D4D6",
"Q c #D5D6D8",
"! c #D6D7D9",
"~ c #DCDCDD",
"^ c #DFE0E0",
"/ c #E0E0E1",
"( c #E1E1E2",
") c #E2E2E2",
"_ c gray89",
"` c #E4E4E4",
"' c gray90",
"] c white",
"[ c None",
/* pixels */
"[[[[[OooooooooooooooooooooooooooO[[[[[",
"[[[oooooooooooooooooooooooooooooooo[[[",
"[[.oooooooO.oooooooooooooooooooooooo[[",
"[.Ooooooooo.ooooooooooooooooooooooooo[",
"[oooo#yhhhhhhhhhhhhhhhhhhhhhhhhy#oooo[",
"Oooo#H''''''''''''''''''''''''''D#oooo",
"ooOoy''''''''''''''''''''''''''''rooo.",
"oo..h''''''''''''''''''''''''''''hoooO",
"ooooj''''''''''''''''''''''''''''joooo",
"ooooj''''''''''`GkpamT'''''''''''joooo",
"ooooj'''''''''!9oooooos_'''''''''joooo",
"ooooj''''''''`4ooooooooh'''''''''joooo",
"ooooh''''''''Pooo9KC&oo&~''''''''joooo",
"ooooh''''''''ZoooV''MyrrW''''''''joooo",
"ooooj''''''''Doo.3K''''''''''''''joooo",
"ooooj'''''''')>o.oo3B~'''''''''''joooo",
"ooooj'''''''''U>Ooooo%s('''''''''joooo",
"ooooj''''''''''^C9+ooo+r'''''''''joooo",
"ooooj'''''''''''''El%oooI''''''''joooo",
"ooO+j'''''''_TBBBR''VoooC''''''''joooo",
"ooooj''''''''S..ou_'c+OoS''''''''joooo",
"ooooh''''''''):Ooo>3O..;)''''''''joooo",
"ooooh'''''''''K=ooo+o.&G'''''''''joooo",
"ooooh''''''''''!s2#+;pR''''''''''joooo",
"ooooh''''''''''''''_'''''''''''''joooo",
"ooooj''''''''''''''''''''''''''''joooo",
"ooooj''''''''''''''''''''''''''''joooo",
"ooooj''''''''''''''''''''''''''''joooo",
"ooooj''''''''''''''''''''''''''''joooo",
"ooooj''''''''''''''''''''''''''''joooo",
"ooooj''''''''''''''''''''''''''''joooo",
"ooooj''''''']]]]]]]]]]]]]]'''''''hoooo",
"oooob]]]]]]]]]]]]]]]]]]]]]]]]]]]]m..oo",
"oooob]]]AAAAAAAAAAAAAAAAAAAAAA]]]c.OoO",
"oooo6AAAAAAAAAAAAAAAAAAAAAAAAAAAA7O.o.",
"oooo#xAAAAAAAAAAAAAAAAAAAAAAAAAAx+oOoo",
"[oooo#7rwwwwrwwwwwwwwwrrwwrrwww6++ooo[",
"[ooooooooooooooooooooooo..ooooooO.ooo[",
"[[oooooooooooooooooooooo..Oooooooooo[[",
"[[[ooooooooooooooooooooo..ooooooooo[[[",
"[[[[[oooooooooooooooooooooooooooo[[[[["
};
