/* XPM */
static char *strawberry_1[] = {
/* columns rows colors chars-per-pixel */
"32 32 9 1 ",
"  c #202830",
". c #8C2F37",
"X c #A6353F",
"o c #A53741",
"O c #C43E4A",
"+ c #85A372",
"@ c #9DC187",
"# c white",
"$ c None",
/* pixels */
"$$$$$$$$$$$$$$$$$$$$$$$$$$$$$$$$",
"$$$$$$$$$$$$$$$$$$$$$$$$$$$$$$$$",
"$$$$$$$$$$$$$$$$$$$$$$$$$$$$$$$$",
"$$$$$$$$$$$$$$$$$$$$$$$$$$$$$$$$",
"$$$$$$$$$$$$$$$$$$$$$$$$$$$$$$$$",
"$$$$$$$$$$$$$$##$$$$$$$$$$$$$$$$",
"$$$$$$$$$$$###++###$$$$$$$$$$$$$",
"$$$$$$$$$##X.+@@+.X##$$$$$$$$$$$",
"$$$$$$$$#XXo@@@@@@oXX#$$$$$$$$$$",
"$$$$$$$#XOO@@oooo@@OOX#$$$$$$$$$",
"$$$$$$#XOOOooOOOOooOOOX#$$$$$$$$",
"$$$$$$#XOOOOOOOOOOOOOOX#$$$$$$$$",
"$$$$$$#XOOOOOOOOOOOOOOX#$$$$$$$$",
"$$$$$$#XOO #OOOOOOOO #X#$$$$$$$$",
"$$$$$$#XOO  OOOOOOOO  X#$$$$$$$$",
"$$$$$$#XOOOOOOOO  OOOOX#$$$$$$$$",
"$$$$$$$#XOOOOOOOOOOOOX#$$$$$$$$$",
"$$$$$$$#XOOOOOOOOOOOOX#$$$$$$$$$",
"$$$$$$$$#XOOOOOOOOOOX#$$$$$$$$$$",
"$$$$$$$$#.OOOOOOOOOO.#$$$$$$$$$$",
"$$$$$$$$$#.oOOOOOOo.#$##$$$$$$$$",
"$$$$$$$##$#..oooo..#$#  #$$$$$$$",
"$$$$$$#  #$##....##$#   #$$$$$$$",
"$$$$$$#   #$$####$$$#  #$$$$$$$$",
"$$$$$$$#  #$$$$$$$$# ##$$$$$$$$$",
"$$$$$$$$##$$$$$$$$$$#$$$$$$$$$$$",
"$$$$$$$$$$$$$$$$$$$$$$$$$$$$$$$$",
"$$$$$$$$$$$$$$$$$$$$$$$$$$$$$$$$",
"$$$$$$$$$$$$$$$$$$$$$$$$$$$$$$$$",
"$$$$$$$$$$$$$$$$$$$$$$$$$$$$$$$$",
"$$$$$$$$$$$$$$$$$$$$$$$$$$$$$$$$",
"$$$$$$$$$$$$$$$$$$$$$$$$$$$$$$$$"
};
