/* XPM */
static char *test2[] = {
/* columns rows colors chars-per-pixel */
"200 20 6 1 ",
"  c black",
". c #AE411A",
"X c #CC8A1E",
"o c #D4A71F",
"O c #DDD021",
"+ c None",
/* pixels */
"++++++++++++++++++++++++++++++++++++++++++++++++++++++++++++++++++++++++++++++++++++++++++++++++++++++++++++++++++++++++++++++++++++++++++++++++++++++++++++++++++++++++++++++++++++++++++++++++++++++++",
"++++++++++++++++++++++++++++++++++++++++++++++++++++++++++++++++++++++++++++++++++++++++++++++++++++++++++++++++++++++++++++++++++++++++++++++++++++++++++++++++++++++++++++++++++++++++++++++++++++++++",
"            ++++++++              ++++++              ++++++              ++++++++++++++++++++++++++              ++++++              ++++++        ++        ++              ++++++              ++++++",
"            ++++++++              ++++++              ++++++              ++++++++++++++++++++++++++              ++++++              ++++++        ++        ++              ++++++              ++++++",
"  OOOOOOOO    ++++++  OOOO  OOOO  ++++++  OOOOOOOOOO  ++++++  OOOO  OOOO  ++++++++++++++++++++++++++  OOOOOOOOOO  ++++++  OOOOOOOOOO  ++++++  OOOO      OOOO  ++  OOOOOOOOOO  ++++++  OOOOOOOOOO  ++++++",
"  OOOOOOOO    ++++++  OOOO  OOOO  ++++++  OOOOOOOOOO  ++++++  OOOO  OOOO  ++++++++++++++++++++++++++  OOOOOOOOOO  ++++++  OOOOOOOOOO  ++++++  OOOO      OOOO  ++  OOOOOOOOOO  ++++++  OOOOOOOOOO  ++++++",
"  oooo..oooo  ++++++  oooo  oooo  ++++++  oooo......  ++++++  oooo  oooo  ++++++++++++++++++++++++++  oooo..oooo  ++++++  oooo..oooo  ++++++  oooo  oo  oooo  ++  oooo......  ++++++  oooo..oooo  ++++++",
"  oooo..oooo  ++++++  oooo  oooo  ++++++  oooo......  ++++++  oooo  oooo  ++++++++++++++++++++++++++  oooo..oooo  ++++++  oooo..oooo  ++++++  oooo  oo  oooo  ++  oooo......  ++++++  oooo..oooo  ++++++",
"  oooo  oooo  ++++++  oooo  oooo  ++++++  oooo        ++++++  oooooooo..  ++++++++++++++++++++++++++  oooooooooo  ++++++  oooo  oooo  ++++++  oooooooooooooo  ++  oooooooo    ++++++  oooooooo..  ++++++",
"  oooo  oooo  ++++++  oooo  oooo  ++++++  oooo        ++++++  oooooooo..  ++++++++++++++++++++++++++  oooooooooo  ++++++  oooo  oooo  ++++++  oooooooooooooo  ++  oooooooo    ++++++  oooooooo..  ++++++",
"  XXXX  XXXX  ++++++  XXXX  XXXX  ++++++  XXXX        ++++++  XXXX..XXXX  ++++++++++++++++++++++++++  XXXX......  ++++++  XXXX  XXXX  ++++++  XXXXXX..XXXXXX  ++  XXXX....    ++++++  XXXX..XXXX  ++++++",
"  XXXX  XXXX  ++++++  XXXX  XXXX  ++++++  XXXX        ++++++  XXXX..XXXX  ++++++++++++++++++++++++++  XXXX......  ++++++  XXXX  XXXX  ++++++  XXXXXX..XXXXXX  ++  XXXX....    ++++++  XXXX..XXXX  ++++++",
"  XXXXXXXX..  ++++++  XXXXXXXXXX  ++++++  XXXXXXXXXX  ++++++  XXXX  XXXX  ++++++++++++++++++++++++++  XXXX        ++++++  XXXXXXXXXX  ++++++  XXXX..  ..XXXX  ++  XXXXXXXXXX  ++++++  XXXX  XXXX  ++++++",
"  XXXXXXXX..  ++++++  XXXXXXXXXX  ++++++  XXXXXXXXXX  ++++++  XXXX  XXXX  ++++++++++++++++++++++++++  XXXX        ++++++  XXXXXXXXXX  ++++++  XXXX..  ..XXXX  ++  XXXXXXXXXX  ++++++  XXXX  XXXX  ++++++",
"  ........    ++++++  ..........  ++++++  ..........  ++++++  ....  ....  ++++++++++++++++++++++++++  ....  ++++++++++++  ..........  ++++++  ....      ....  ++  ..........  ++++++  ....  ....  ++++++",
"  ........    ++++++  ..........  ++++++  ..........  ++++++  ....  ....  ++++++++++++++++++++++++++  ....  ++++++++++++  ..........  ++++++  ....      ....  ++  ..........  ++++++  ....  ....  ++++++",
"            ++++++++              ++++++              ++++++              ++++++++++++++++++++++++++        ++++++++++++              ++++++        ++        ++              ++++++              ++++++",
"            ++++++++              ++++++              ++++++              ++++++++++++++++++++++++++        ++++++++++++              ++++++        ++        ++              ++++++              ++++++",
"++++++++++++++++++++++++++++++++++++++++++++++++++++++++++++++++++++++++++++++++++++++++++++++++++++++++++++++++++++++++++++++++++++++++++++++++++++++++++++++++++++++++++++++++++++++++++++++++++++++++",
"++++++++++++++++++++++++++++++++++++++++++++++++++++++++++++++++++++++++++++++++++++++++++++++++++++++++++++++++++++++++++++++++++++++++++++++++++++++++++++++++++++++++++++++++++++++++++++++++++++++++"
};
