/* XPM */
static char *traps2[] = {
/* columns rows colors chars-per-pixel */
"32 32 3 1 ",
"  c #353540",
". c #918D8D",
"X c #BFB8B4",
/* pixels */
"XXXX..XXXXXXXXXXXXXXXXXXXX..XXXX",
"XXXX..XXXXXXXXXXXXXXXXXXXX..XXXX",
"XX............................XX",
"XX............................XX",
"XX............................XX",
"XX............................XX",
"XX............................XX",
"XX............................XX",
"XX..                        ..XX",
"XX..                        ..XX",
"....                        ....",
"....                        ....",
"XX..  XXXXXXXXXXXXXXXXXXXX  ..XX",
"XX..  XXXXXXXXXXXXXXXXXXXX  ..XX",
"XX..  XXXXXXXXXXXXXXXXXXXX  ..XX",
"XX..  XXXXXXXXXXXXXXXXXXXX  ..XX",
"XX..  XXXX............XXXX  ..XX",
"XX..  XXXX............XXXX  ..XX",
"XX..  XXXX..XXXXXXXX..XXXX  ..XX",
"XX..  XXXX..XXXXXXXX..XXXX  ..XX",
"....  XXXX..XXXXXXXX..XXXX  ....",
"....  XXXX..XXXXXXXX..XXXX  ....",
"XX..  XXXX..XXXXXXXX..XXXX  ..XX",
"XX..  XXXX..XXXXXXXX..XXXX  ..XX",
"XX..  XXXX..XXXXXXXX..XXXX  ..XX",
"XX..  XXXX..XXXXXXXX..XXXX  ..XX",
"XX..                        ..XX",
"XX..                        ..XX",
"XX............................XX",
"XX............................XX",
"XXXX..XXXXXXXXXXXXXXXXXXXX..XXXX",
"XXXX..XXXXXXXXXXXXXXXXXXXX..XXXX"
};
