/* XPM */
static char *traps4[] = {
/* columns rows colors chars-per-pixel */
"32 32 3 1 ",
"  c #353540",
". c #918D8D",
"X c #BFB8B4",
/* pixels */
"XXXX..XXXXXXXXXXXXXXXXXXXX..XXXX",
"XXXX..XXXXXXXXXXXXXXXXXXXX..XXXX",
"XX............................XX",
"XX............................XX",
"XX............................XX",
"XX............................XX",
"XX............................XX",
"XX............................XX",
"XX..                        ..XX",
"XX..                        ..XX",
"....                        ....",
"....                        ....",
"XX..                        ..XX",
"XX..                        ..XX",
"XX..                        ..XX",
"XX..                        ..XX",
"XX..                        ..XX",
"XX..                        ..XX",
"XX..                        ..XX",
"XX..                        ..XX",
"....                        ....",
"....                        ....",
"XX..                        ..XX",
"XX..                        ..XX",
"XX..                        ..XX",
"XX..                        ..XX",
"XX..                        ..XX",
"XX..                        ..XX",
"XX............................XX",
"XX............................XX",
"XXXX..XXXXXXXXXXXXXXXXXXXX..XXXX",
"XXXX..XXXXXXXXXXXXXXXXXXXX..XXXX"
};
