/* XPM */
static char *tree8[] = {
/* columns rows colors chars-per-pixel */
"32 32 8 1 ",
"  c #263B15",
". c #412B23",
"X c #345917",
"o c #554C2F",
"O c #644439",
"+ c #4E8425",
"@ c #8AB867",
"# c None",
/* pixels */
"##########@@###########XXX######",
"###+X@###XX@@@@######XXX@@XXXX##",
"#####+X@#+XXXX@@####XXX@XX+++###",
"#XX##++X@#@@++X@###XX@@X@@X#####",
"#@+XXX+X#@#@@X+X@+XX@+++X+@X####",
"##@+++X+X#++@@@+X++@++#X#X+#####",
"#++XXXXXXX+XXX@XXXX##+++########",
"#+X@@+#X#X@@+XX+ +XX###++#######",
"#@##+#X@@@X+X+X++++++XXXX@+++###",
"#####XXX+X+X++X + ++XXXX+#@+####",
"###XX+##X++X +XXX++X+++XX+#@####",
"#XX+XX#X+XXX +X  .+X+X##@XX#####",
"X++XX#X++XX+ .  ..+X@@X##@+#####",
"X+X@@X+#X+XXO....O+@X#@X##@#####",
"#X@@###X+#+#XOOOoO##@X#@########",
"#+@###X+##+###OOO####@##########",
"X@####X#######oOO..#############",
"##############ooO.##############",
"###############O..##############",
"#############oo....#############",
"##############oOo.##############",
"##############OOO..#############",
"###############oOo.#############",
"##############.oOo##############",
"###############oO..#############",
"###############oo.##############",
"###############Oo.##############",
"##############..OOO#############",
"###############oOO##############",
"##############ooO...############",
"###########.##OO....#.##########",
"##########O.O.....O..OO#########"
};
