/* XPM */
static char *tree4[] = {
/* columns rows colors chars-per-pixel */
"44 48 10 1 ",
"  c #523337",
". c #0F5144",
"X c #19694F",
"o c #86503E",
"O c #BA7552",
"+ c #1A8254",
"@ c #2E9556",
"# c #36AE5C",
"$ c #3DC567",
"% c None",
/* pixels */
"%%%%%%%%%%%%%%%%%%%%%%%%%%%%%%%%%%%%%%%%%%%%",
"%%%%%%%%%%%%%%%%%%%%%%%%%%%%%%%%%%%%%%%%%%%%",
"%%%%%%%%%%%%%%%%%%%%%%%%%%%%%%%%%%%%%%%%%%%%",
"%%%%%%%%%%%%%%%%%%%%%%%%%%%%%%%%%%%%%%%%%%%%",
"%%%%%%%%%%%%%%%%%%%%%%%%%%%%%%%%%%%%%%%%%%%%",
"%%%%%%%%%%%%%%%%@@@@%%%%%%%%%%%%%%%%%%%%%%%%",
"%%%%%%%%%%%%%%%%@###@%%%%%%%%%%%%%%%%%%%%%%%",
"%%%%%%%%%%%%@@@@@####@@@@@%%%%%%%%%%%%%%%%%%",
"%%%%%%%%%%%%@$$$$@###$$$$@%%%%%%%%%%%%%%%%%%",
"%%%%%%%%%%%@@@$$$$$#$$$#@@@@%%%%%%%%%%%%%%%%",
"%%%%%%%%%@@##$##$$$#$$#$$$##@@%%%%%%%%%%%%%%",
"%%%%%%%%@##$$$$$######$$$$$$##@%%%%%%%%%%%%%",
"%%%%%%%@#$$$$$$$$$$$$$$$$$$$$$#@%%%%%%%%%%%%",
"%%%%%%@#$$$$$$$$$$$$$$$$$$$$$$$#@%%%%%%%%%%%",
"%%%%%@#$$$$$$$$$$$$$$$$$$$$$$$$$#@%%%%%%%%%%",
"%%%%%@$$$$$$$$$$$$$$$$$$$$$$$$$$$$@%%%%%%%%%",
"%%%%%%@@$$$$$$$$$$$$$$$$$$$$$$$$@@%%%%%%%%%%",
"%%%%++#$$$$$$$$$$$$$$$$$$$$$$$$$$#++%%%%%%%%",
"%%%+###$$#$$$#$$$$$$$$$$$$#$$$#$$###+%%%%%%%",
"%%X@@@#####$#$$$$$$$$$$$$$$#$#####@@@X%%%%%%",
"%%XX@########$$$$$$$$$$$$$$########@XX%%%%%%",
"%%%X@##@##@##$#$$$#$$#$$$#$##@##@##@X%%%%%%%",
"%%%X++@@@#@@###$$$####$$$###@@#@@@++X%%%%%%%",
"%%X+@@@@@@@####$$$@##@$$$####@@@@@@@+X%%%%%%",
"%X@@@@@@@#######$@####@$#######@@@@@@@X%%%%%",
"%%XX@@@@@@@#####@######@#####@@@@@@@XX%%%%%%",
"%XX@@@@@@@######@######@######@@@@@@@XX%%%%%",
"%XX@@X@@@@##@##@@#@##@#@@##@##@@@@X@@XX%%%%%",
"%XXXXXX@@@@@@@#@@@@##@@@@#@@@@@@@XXXXXX%%%%%",
"%%XXX@@@@@@@@@@@@@@##@@@@@@@@@@@@@@XXX%%%%%%",
"%%XXXXX@@@@@@+@@@@@@@@@@@@+@@@@@@XXXXX%%%%%%",
"%%XXXX@@@@@@+@@@@@@@@@@@@@@+@@@@@@XXXX%%%%%%",
"%%%XXX@@X@@++@@@@@@@@@@@@@@++@@X@@XXX%%%%%%%",
"%%%.XXXXXX@++@+@@@+@@+@@@+@++@XXXXXX.%%%%%%%",
"%%%.XXXXX++++++@@@++++@@@++++++XXXXX.%%%%%%%",
"%%%%..XXXXX++++@@@++++@@@++++XXXXX..%%%%%%%%",
"%%%%%%.XXXX+++++@++++++@+++++XXXX.%%%%%%%%%%",
"%%%%%%%.XXX+X++XX++++++XX++X+XXX.%%%%%%%%%%%",
"%%%%%%%.XXXXXX+XX+X++X+XX+XXXXXX.%%%%%%%%%%%",
"%%%%%%%%..XX.XXXXXX++XXXXXX.XX..%%%%%%%%%%%%",
"%%%%%%%%%%.X.XXXXXX++XXXXXX.X.%%%%%%%%%%%%%%",
"%%%%%%%%%%%..X.XXXXXXXXXX.X..%%%%%%%%%%%%%%%",
"%%%%%%%%%%%%%..XXX.XX.XXX..%%%%%%%%%%%%%%%%%",
"%%%%%%%%%%%%%%%.X.o..o.X.%%%%%%%%%%%%%%%%%%%",
"%%%%%%%%%%%%%%%%.oooooo.%%%%%%%%%%%%%%%%%%%%",
"%%%%%%%%%%%%%%%% oOooOo %%%%%%%%%%%%%%%%%%%%",
"%%%%%%%%%%%%%%%% oOOOOo %%%%%%%%%%%%%%%%%%%%",
"%%%%%%%%%%%%%%%  oOOOOo  %%%%%%%%%%%%%%%%%%%"
};
