/* XPM */
static char *tree[] = {
/* columns rows colors chars-per-pixel */
"128 128 8 1 ",
"  c #16272C",
". c #52321D",
"X c #1D522B",
"o c #227A2E",
"O c #8F4A39",
"+ c #CC7041",
"@ c #2CB82C",
"# c None",
/* pixels */
"################################################################################################################################",
"##############################################################            ######################################################",
"#######################################################        XXXXXXXXXX   ####################################################",
"#################################################       XXXXXXX@@@@@@@@@@XX  ###################################################",
"###############################################   XXXXXX@@@@@@@@@@@@@@@@@@@X  ##################################################",
"##############################################  XX@@@@@@@@@@@@@@@@@@@@@@@@@@X  #################################################",
"#############################################  X@@@@@@@@@@@@@@@@@@@@@@@@@@@@@X   ###############################################",
"############################################  X@@@@@@@@@@@@@@@@@@@@@@@@@@@@@@@@X ###############################################",
"############################################ X@@@@@@@@@@@@@@@@@@@@@@@@@@@@@@@@@X  ##############################################",
"###########################################  X@@@@@@@@@@@@@@@@@@@@@@@@@@@@@@@@@@X       ########################################",
"##########################################  X@@@@@@@@@@@@@@@@@@@@@@@@@@@@@@@@@@@XX XXXX     ####################################",
"################################       ##  X@@@@@@@@@@@@@@@@@@@@@@@@@@@@@@@@@@@@@X @@@@XXX    ##################################",
"#############################    XXXXX    X@@@@@@@@@@@@@@@@@@@@@@@@@@@@@@@@@@@@@@oX@@@@@@@XXX  #################################",
"###########################   XXX@@@@@XX X@@@@@@@@@@@@@@@@@@@@@@@@@@@@@@@@@@@@@@@oX@@@@@@@@@@X  ################################",
"##########################  X@@@@@@@@@@@Xo@@@@@@@@@@@@@@@@@@@@@@@@@@@@@@@@@@@@@@@oX@@@@@@@@@@@X  ###############################",
"#########################  X@@@@@@@@@@@@Xo@@@@@@@@@@@@@@@@@@@@@@@@@@@@@@@@@@@@@@@oX@@@@@@@@@@@@X  ##############################",
"########################  X@@@@@@@@@@@@Xo@@@@@@@@@@@@@@@@@@@@@@@@@@@@@@@@@@@@@@@@oX@@@@@@@@@@@@@X ##############################",
"##################       X@@@@@@@@@@@@@Xo@@@@@@@@@@@@@@@@@@@@@@@@@@@@@@@@@@@@@@@oX@@@@@@@@@@@@@@X  #############################",
"###############    XXXX X@@@@@@@@@@@@@@@Xo@@@@@@@@@@@@@@@@@@@@@@@@@@@@@@@@@@@@@@oX@@@@@@@@@@@@@@@X     #########################",
"#############   XXX@@@@Xo@@@@@@@@@@@@@@@Xoo@@@@@@@@@@@@@@@@@@@@@@@@@@@@@@@@@@@@@oX@@@@@@@@@@@@@@@@XXXX    ######################",
"############  XX@@@@@@@Xoo@@@@@@@@@@@@@@@XXooo@@@@@@@@@@@@@@@@@@@@@@@@@@@@@@@@@oX@@@@@@@@@@@@@@@@@@@@@XXX   ####################",
"###########  X@@@@@@@@@@Xoo@@@@@@@@@@@@@@@@XXX@@@@@@@@@@@@@@@@@@@@@@@@@@@@@@@@@oX@@@@@@@@@@@@@@@@@@@@@@@@@X  ###################",
"##########  X@@@@@@@@@@@@XX@@@@@@@@@@@@@@@@@@@@@@@@@@@@@@@@@@@@@@@@@@@@@@@@@@@oX@@@@@@@@@@@@@@@@@@@@@@@@@@@X  ##################",
"#########  X@@@@@@@@@@@@@@@@@@@@@@@@@@@@@@@@@@@@@@@@@@@@@@@@@@@@@@@@@@@@@@@@@@@@@@@@@@@@@@@@@@@@@@@@@@@@@@@@X ##################",
"########  X@@@@@@@@@@@@@@@@@@@@@@@@@@@@@@@@@@@@@@@@@@@@@@@@@@@@@@@@@@@@@@@@@@@@@@@@@@@@@@@@@@@@@@@@@@@@@@@@@X  #################",
"#######  X@@@@@@@@@@@@@@@@@@@@@@@@@@@@@@@@@@@@@@@@@@@@@@@@@@@@@@@@@@@@@@@@@@@@@@@@@@@@@@@@@@@@@@@@@@@@@@@@@@@X #################",
"####### X@@@@@@@@@@@@@@@@@@@@@@@@@@@@@@@@@@@@@@@@@@@@@@@@@@@@@@@@@@@@@@@@@@@@@@@@@@@@@@@@@@@@@@@@@@@@@@@@@@@@X  ################",
"######  X@@@@@@@@@@@@@@@@@@@@@@@@@@@@@@@@@@@@@@@@@@@@@@@@@@@@@@@@@@@@@@@@@@@@@@@@@@@@@@@@@@@@@@@@@@@@@@@@@@@@@X ################",
"###### X@@@@@@@@@@@@@@@@@@@@@@@@@@@@@@@@@@@@@@@@@@@@@@@@@@@@@@@@@@@@@@@@@@@@@@@@@@@@@@@@@@@@@@@@@@@@@@@@@@@@@@X ################",
"#####  X@@@@@@@@@@@@@@@@@@@@@@@@@@@@@@@@@@@@@@@@@@@@@@@@@@@@@@@@@@@@@@@@@@@@@@@@@@@@@@@@@@@@@@@@@@@@@@@@@@@@@@X  ###############",
"##### X@@@@@@@@@@@@@@@@@@@@@@@@@@@@@@@@@@@@@@@@@@@@@@@@@@@@@@@@@@@@@@@@@@@@@@@@@@@@@@@@@@@@@@@@@@@@@@@@@@@@@@@@X ###############",
"##### X@@@@@@@@@@@@@@@@@@@@@@@@@@@@@@@@@@@@@@@@@@@@@@@@@@@@@@@@@@@@@@@@@@@@@@@@@@@@@@@@@@@@@@@oooo@@@@@@@@@@@@@X ###############",
"####  X@@@@@@@@@@@@@@@@@@@@@@@@@@@@@@@@@@@@@@@@@@@@@@@@@@@@@@@@@@@@@@@@@@@@@@@@@@@@@@@@@@@@@ooooooo@@@@@@@oo@@@X  ##############",
"#### Xoo@@@@@@@@@@@@@@@@@@@@@@@@@@@@@@@@@@@@@@@@@@@@@@@@@@@@@@@@@@@@@@@@@@@@@@@@@@@@@@@@@@@ooooooooo@@@@@ooo@@@@X ##############",
"#### Xoo@@@@@@@@@@@@@@@@oooo@@@@@@@@@@@@@@@@@@@@@@@@@@@@@@@@@@@@@@@@@@@@@@@@@@@@@@@@@@@@@@@oooooooooo@@@ooo@@@@@X ##############",
"#### Xooo@@@@@@@@@@@@@ooooooo@@@@@@@@@@@@@@@@@@@@@@@@@@@@@@@@@@@@@@@@@@@@@@@@@@@@@@@@@@@@@ooooooooooooooooo@@@@@X  #############",
"#### Xoooo@@@@@@@@@@oooooooo@@@@@@@@@@@@@@@@@@@@@@@@@@@@@@@@@@@@@@@@@@@@@@@@@@@@@@@@@@@@@@ooooooooooooooooo@@@@@@X  ############",
"#### Xooooooo@@@@ooooooooo@@@@@@@@@@@@@@@@@@@@@@@@@@@@@@@@@@@@@@@@@@@@@@@@@@@@@@@@@@@@@@@ooooooooooooooooooo@@@@@oX  ###########",
"#### Xooooooooooooooooo@@@@@@@@@@@@@@@@@@@@@@@@@@@@@@@@@@@@@@@@@@@@@@@@@@@@@@@@@@@@@@@@@@ooooooooooooooooooo@@@@@ooX  ##########",
"#### Xoooooooooooooooo@@@@@@@@@@@@@@@@@@@@@@@@@@@@@@@@@@@@@@@@@@@@@@@@@@@@@@@@@@@@@@@@@@ooooooooooooooooooooo@@@ooooX ##########",
"#### Xooooooooooooooo@@@@@@@@@@@@@@oooooooo@@@@@@@@@@@@@@@@@@@@@@@@@@@@@@@@@@@@@@@@@@@ooooooooooooooooooooooooooooooX  #########",
"####  Xooooooooooooo@@@@@@@@@@@@ooooooooooooo@@@@@@@@@@@@@@@@@@@@@@@@@@@@@@@@@@@@@@ooooooooooooooooooooooooooooooooooX #########",
"##### Xooooooooooooo@@@@@@@@@oooooooooooooooooo@@@@@@@@@@@@@@@@@@@@@@@@@@@@@@@@@@ooooo@@@ooooooooooooooooooooooooooooX #########",
"##### Xoooooooooooo@@@@@@@@ooooooooooooooooooooo@@@@@@@@@@@@@@@@@@@@@@@@@@@@@@@@oooo@@@@@@@ooooooooooooooooooooooooooX #########",
"#####  Xooooooooooo@@@@@@ooooooooooooooooooooooo@@@@@@@@@@@@@@@@@@@@@@@@@@@@@@@ooo@@@@@@@@@@@ooooooooooooooooooooooooX #########",
"###### Xooooooooooo@@@@@ooooooooooooooooooooooooo@@@@@@@@@@@@@@@@@@@@@@@@@@@@@@ooo@@@@@@@@@@@@oooooooooooooooooooooooX #########",
"###### Xooooooooooo@@@@@ooooooooooooooooooooooooo@@@@@@@@@@@@@@@@@@@@@@@@@@@@@@@ooo@@@@@@@@@@@@ooooooooooooooooooooooX  ########",
"###### Xoooooooooooo@@@ooooooooooooooooooooooooooo@@@@oooooo@@@@@@@@@@@@@@@@@@@@@o@@@@@@@@@@@@@oooooooooooooooooooooXXX  #######",
"######  Xoooooooooooo@@oooooooooooooooooooooooooooo@@ooooooooo@@@@@@@@@@@@@@@@@@@@@@@@@@@@@@@@@ooooooooooooooooooooXXXXX #######",
"####### Xooooooooooooo@@ooooooooooooooooooooooooooooooooooooooo@@@@@@@@@@@@@@@@@@@@@@@@@@@@@@@oooooooooooooooooooooXXXXX  ######",
"######  Xoooooooooooooooooooooooooooooooooooooooooooooooooooooo@@@@@@@@@@@@@@@@@@@@@@@@@ooooooooooooooooooooooooooooXXXXX  #####",
"###### Xooooooooooooooooooooooooooooooooooooooooooooooooooooooo@@@@@@@@@@@@@@@@@@@@@@oooooooooooooooooooooooooooooooXXXXXX #####",
"###### Xoooooooooooooooooooooooooooooooooooooooooooooooooooooo@@@@@@@@@@@@@@@@@@@@@ooooooooooooooooooooooooooooooooooXXXXX  ####",
"#####  Xooooooooooooooooooooooooooooooooooooooooooooooooooooo@@@@@@@@@@@@@@@@@@@@@oooooooooooooooooooooooooooooooooooXXXXXX ####",
"##### Xooooooooooooooooooooooooooooooooooooooooooooooooooooo@@@@@ooo@@@@@@@@@@@@@@ooo@@@ooooooooooooooooooooooooooooXXXXXXX ####",
"##### Xoooooooooooooooooooooooooooooooooooooooooooooooooooooo@@oooooo@@@@@@@@@@@@@@o@@@@@@ooooooooooooooooooooXXoooXXXXXXXX  ###",
"####  Xooooooooooooooooooooooooooooooooooooooooooooooooooooooooooooooo@@@@@@@@@@@@@@@@@@@@@@oooooooooooooooooXXXXXXXXXXXXXXX ###",
"#### Xoooooooooooooooooooooooooooooooooooooooooooooooooooooooooooooooo@@@@@@@@@@@@@@@@@@@@@@@oooooooooooooooXXXXXXXXXXXXXXXX ###",
"#### Xooooooooooooooooooooooooooooooooooooooooooooooooooooooooooooooo@@@@@@@@@@@@@@@@@@@@@@@@oooooooooooooooooXXXXXXXXXXXXXX ###",
"#### XXoooooooooooooooooooooooooooooooooooooooooooooooooooooooooooooo@@@@@@@@@@@@@@@@@@@@@@@oooooooooooooooooooooXXXXXXXXXXX ###",
"###  XXXXooXXoooooooooooooooooooooooooooooooooooooooooooooooooooooooo@@@@@@@@@@@@@@@@@@@@@@ooooooooooooooooooooooooXXXXXXXXX ###",
"### XXXXXXXXXXoooooooooooooooooooooooooooooooooooooooooooooooooooooooo@@@@@@@@@@@@@@@@@@@ooooooooooooooooooooooooooXXXXXXXXX ###",
"### XXXXXXXXXXoooooooooooooooooooooooooooooooooooooooooooooooooooooooooo@@@@@@@@@@@@@@ooooooooooooooooooooooooooooooXXXXXXXX ###",
"### XXXXXXXXooooooooooooooooooooooooooooooooooooooooooooooooooooooooooooooo@@@@@@@@oooooooooooooooooooooooooooooooooXXXXXXX  ###",
"### XXXXXXXoooooooooooooooooooooooooooooooooooooooooooooooooooooooooooooooooooooooooooooooooooooooooooooooooooooooooXXXXXXX ####",
"### XXXXXXXooooooooooooooooooooooooooooooooooooooooooooooooooooooooooooooooooooooooooooooooooooooooooooooooooooooooXXXXXXXX ####",
"### XXXXXXXXooooooooooooooooooooooooooooooooooooooooooooooooooooooooooooooooooooooooooooooooooooooooooooooooooXXooXXXXXXXX  ####",
"### XXXXXXXXoooooooooooooooooooooooooooooooooooooooooooooooooooooooooooooooooooooooooooooooooooXXoooooooooooXXXXXXXXXXXXXX #####",
"###  XXXXXXXXXooooooooooooooooooooooooooooooooooooooooooooooooooooooooooooooooooooooooooooooooXXXXXoooooooXXXXXXXXXXXXXXX  #####",
"#### XXXXXXXXXXoooooooooooXXooooooooooooooooooooooXXooooooooooooooooooooooooooooooooooooooooooXXXXXXXooooXXXXXXXXXXXXXXXX ######",
"#### XXXXXXXXXXXXoooooooXXXXXooooooooooooooooooooXXXXoooooooooooooooooooooooooooooooooooooooooXXXXXXXXXXXXXXXXXXXXXXXXXX  ######",
"#### XXXXXXXXXXXXXXXXXXXXXXXXXoooooooooooooooooooXXXXoooooooooooooooXXXooooooooooooooooooooooooXXooXXXXXXXXXXXXXXXXXXXXX #######",
"####  XXXXXXXXXXXXXXXXXXXXooXXXoooooooooooooooooooXXXXooooooooooooooXXXoooooooooooooooooooooooooooooXXXXXXXXXXXXXXXXXXX  #######",
"##### XXXXXXXXXXXXXXXXXXXooooXoooooooooooooooooooooXXXoooooooooooooXXXXoooooooooooooooooooooooooooooXXXXXXXXXXXXXXXXXX  ########",
"##### XXXXXXXXXXXXXXXXXXooooooooooooooooooooooooooooXXXXooooooooooXXXooooooooooooooooooooooooooooooXXXXXXXXXXXXXXXXXX  #########",
"#####  XXXXXXXXXXXXXXXXXooooooooooooooooooooooooooooXXXXXXoooooooXXXoooooooooooooooXXooooooooooooooXXXXXXXXXXXXXXXXX  ##########",
"###### XXXXXXXXXXXXXXXXXXooooooooooooooooooooooooooXXXXXXXXXXXXXXXXooooooooooooooooXXXooooooooooooXXXXXXXXXXXXXXXXX  ###########",
"######  XXXXXXXXXXXXXXXXXXooooooooooooooooooooooooXXXXXXXXXXXXXXXXXoooooooooooooooooXXXoooooooooXXXXXXXXXXXXXXXXXXX ############",
"#######  XXXXXXXXXXXXXXXXXXooooooooooooooooooooooXXXXXXXXXXXXXXXXXXoooooooooooooooooXXXXXooooXXXXXXXXXXXXXXXXXXXXX  ############",
"########   XXXXXXXXXXXXXXXXXXoooooooooooooooooooXXXXXXXXXXXXXXXXXXXooooooooooooooooXXXXXXXXXXXXXXXXXXXXXXXXXXXXXXX #############",
"##########    XXXXXXXXXXXXXXXXXXooooooooooooooXXXXXXXXXXXXXXXXXXXXXooooooooooooooooXXXXXXXXXXXXXXXXXXXXXXXXXXXXXX  #############",
"#############    XXXXXXXXXXXXXXXXXXXooooooXXXXXXXXXXXXXXXXXXXXXXXXXXooooooooooooooXXXXXXXXXXXXXXXXXXXXXXXXXXXXXX  ##############",
"################      XXXXXXXXXXXXXXXXXXXXXXXXXXXXXXXXXXXXXXXXXXXXXXXooooooooooooXXXXXXXXXXXXXXXXXXXXXXXXXXXXXX  ###############",
"#####################  XXXXXXXXXXXXXXXXXXXXXXXXXXXXXXXXXXXXXXXXXXXXXXXooooooooooXXXXXXXXX  XXXXXXXXXXXXXXXXX    ################",
"######################  XXXXXXXXXXXXXXXXXXXXXXXXXXXXXXXXXXXXXXXXXXXXXXXoooooooXXXXXXXXXX     XXXXXXXXX       ###################",
"#######################   XXXXXXXXXXXXXXXXXXXXXXXXXXXXXXXXXXXXXXXXXXXXXXXXXXXXXXXXXXXXXX O+O           #########################",
"#########################    XXXXXXXXXXXXXXXXXXXXXXXXXXXXXXXXXXXXXXXXXXXXXXXXXXXXXXXXXX  O+O.###################################",
"############################   XXXXXXXXXXXXXXXXXXXXXXXXXXXX    XXXXXXXXXXXXXXXXXXXXXXX  ++O..###################################",
"##############################    XXXXXXXXXXXXXXXXXXXX      OO  XXXXXXXXXXXXXXXXXXXX   +OO..####################################",
"#################################    XXXXXXXXXXXX      ++++OOOO   XXXXXXXXXXXXXXXX   OOO...#####################################",
"####################################              O++++O++++OOOOO    XXXXXXXXXX    O.....#######################################",
"#########################################...OOO++++O+++O+++++OOOOOOO            +OO..###########################################",
"###########################################..OOO+++O++++OO+++OOOOOOO++O+++OO++++OO..############################################",
"############################################..OO++++O+++++OO++OOOO++++++++O+++++O..#############################################",
"#############################################.OOO++++O++++++++OOO++++++++OO++++OO.##############################################",
"#############################################.OOO++++O++++++++OOO++++O+++O+++++O..##############################################",
"#############################################..OOO++++O++++++OOO++++O+++OO+++++O.###############################################",
"##############################################.O+OO++++++++++OOO+++O++++O+++++OO.###############################################",
"##############################################.O++OO++++++++OOO++++O+++OO+++O+OO.###############################################",
"##############################################.O+++O++++++++OO++++O++++OO+++O+O..###############################################",
"##############################################.O+++OO+++++++OO++++O+++++O++O++O.################################################",
"##############################################.O+O++O++++++OO++++O++++++O++O++O.################################################",
"##############################################.O+O++OO++O++OO++++O++++++OO+O++O.################################################",
"##############################################.O++++OO+O+++OO+++O+++++++OOO+++O.################################################",
"##############################################.O++++O++O+++OO+++O++O++++OOO+++O.################################################",
"##############################################.O++++O+++O++OO+++O+O+O+++OO+O++O.################################################",
"#############################################..O++++O+++O++OO+++O+O+O+++O++O++O..###############################################",
"#############################################.O+++O+O+++O++OO+++O+O+O+++O++O+++O.###############################################",
"#############################################.O+++O+O++O+++OO+++O+O+O++OO++O+++O.###############################################",
"#############################################.O+OO++OO+O+++OO+++O+O+O++OOO++O++O..##############################################",
"#############################################.O+++++OO++O++OO+++O+O++O++OO++O+++O.##############################################",
"############################################..O++++OOO++O++OO++++O+O+O++OO+++O++O..#############################################",
"###########################################..O++++OOOO+O++++O++++O+O+O+++OO+++O++O..############################################",
"##########################################..O++++OOOO+++++++OO+++O+++O+++OOO++++++O..#o#########################################",
"########################################...O++++OOO+++++++++OO++++O++O++++OOO++++++O..oo########################################",
"######################################...OO++++OOO+++++++++OOO+++++OO++++++OOO++++++O...##o#####################################",
"#####################################..oO+++++OOOO+++OO++++OOO++++++++++++++OOO++++++OO...oo####################################",
"###################################oo.ooOO+++OOOO+++O++++++OO++++++++++OO+++OOOOO++++++OO..o####################################",
"#####################################oooo.OOOO+OO++O++++++OOO++++++++++++O++OO+OOOOO++oOOO.oo###################################",
"####################################oooooo.oO++O+++O+++++OOOOOO+++++++++++O+OO+++OOOOOoo...#####################################",
"##########################################oo.+OO++++++++OOOOO+OOOO++++++++O++OOO++...oooo#######################################",
"#########################################ooo..O++++++++OOOOO+++OOOOO+o+++++O+O.....#oooooo######################################",
"#########################################oo..O+++++++OoOOOOo+++++OOOoo++++++++O..###############################################",
"########################################oo..O+++++OOOoo...oo......OOooOOO++++++o..##############################################",
"##########################################.OOOoOOO.oooo##oooo####..oooo..OOOOOooo.##############################################",
"##########################################...oo...oooooo##########oooooo.....ooooo##############################################",
"############################################oooo############################ooooooo#############################################",
"################################################################################################################################"
};
