/* XPM */
static char *tree5[] = {
/* columns rows colors chars-per-pixel */
"64 64 15 1 ",
"  c #3D1D1A",
". c #0D2924",
"X c #4B2925",
"o c #5C3434",
"O c #1B473E",
"+ c #6D423A",
"@ c #226043",
"# c #256642",
"$ c #2C7C44",
"% c #97593E",
"& c #4AB734",
"* c #348B40",
"= c #3B9842",
"- c #B88741",
"; c None",
/* pixels */
";;;;;;;;;;;;;;;;;;;;;;;;;;;;;;;;;;;;;;;;;;;;;;;;;;;;;;;;;;;;;;;;",
";;;;;;;;;;;;;;;;;;;;;;;;;;;;;;;;;;;;;;;;;;;;;;;;;;;;;;;;;;;;;;;;",
";;;;;;;;;;;;;;;;;;;;;;;;;;;;;;;;;;;;;;;;;;;;;;;;;;;;;;;;;;;;;;;;",
";;;;;;;;;;;;;;;;;;;;;;;;;;;;;;;;;;;;;;;;;;;;;;;;;;;;;;;;;;;;;;;;",
";;;;;;;;;;;;;;;;;;;;;;;;;;;......;;;;;;;;;;;;;;;;;;;;;;;;;;;;;;;",
";;;;;;;;;;;;;;;;;;;;;;;;;..*****#..;;;;;;.....;;;;;;;;;;;;;;;;;;",
";;;;;;;;;;;;;;;;;;;;;;;;.O#**#**##O.;;...&&&&&..;;;;;;;;;;;;;;;;",
";;;;;;;;;;;;;;;;;;;;;;;.O###*O#**#OO..&&&&&&===$..;;;;;;;;;;;;;;",
";;;;;;;;;;;;;;;;;;;;;;.OOO###*O*#O=&&&=&&&==$$@....;;;;;;;;;;;;;",
";;;;;;;;;;;;;;;;......&==OOO##O#O=&&==&&===$@@.;;;;;;;;;;;;;;;;;",
";;;;;;;;;;;;;...&&&&&&&&&==OO#OO=&&==&&==$$@OO.;;;;;;;;;;;;;;;;;",
";;;;;;;;;;;..=$====&&&&&&&&=$OOO=&=$&==$$@@OO#*..;;;;;;;;;;;;;;;",
";;;;;;;;;;.$$$=&&&&&&&&======$O=&=$===$@@OOOOOOO#..;;;;;;;;;;;;;",
";;;;;;;;;.@$$$$====&&&&&&=$@$$@==@==$$@@OOO####****.;;;;;;;;;;;;",
";;;;;;;;.@@@@@$$$========&==@$@=$@=@$@@OOOOOOO##**#*.;;;;;;;;;;;",
";;;;;;;;......@@@@@$$======$$@$$@=$@@$====&OOOOO#**O#.;;;;;;;;;;",
";;;;;;;.;;;;;;.O@@@@@@@@$$$@$$@$@$@$$===&&&&&&OO.O##O#.;;;;;;;;;",
";;;;;;;;;;;;..*##OOOO@@@@@@@@@$@@@@@@@@$==&&&&=.;..##O.;;;;;;;;;",
";;;;;;;;;;..*##OOO##OOOO@@=$$$@@@@@$$$$=$$=&&&&&.;;.O#O.;;;;;;;;",
";;;;;;;;;.**#OO**#OOO======@@@$$@@$@$$===&==&&&&&.;;..#.;;;;;;;;",
";;;;;;;;.#*#O***#OO&==&==@@==$$@$@$$@@@$==&&&&&&&&.;;;...;;;;;;;",
";;;;;;;.#*#***##OO&&&&=@@==&=$$@$@$=$@@@$@=&&&&==&=.;;;;.;;;;;;;",
";;;;;;;.#****##OO=&&&=@=&&&=$$@@$$@$=@O@@@$==&&&====.;;;;;;;;;;;",
";;;;;;.#***###OO=&&&=@=&&&=$$@O@$=@$&=@OO@@$======$==.;;;;;;;;;;",
";;;;;;.#**##OOO@=&&&&&&&&==$@@@$$==@=&=OOO@@@$$====$=$.;;;;;;;;;",
";;;;;.#*##OO.O@=&&&&&&&&==$@@O@$$=&@=&&=OOOO@@$$$===$@.;;;;;;;;;",
";;;;;.###O..;.==&=&&&&===@@@OO@$$&&@=&&==OOOO@@@$$$$$$$.;;;;;;;;",
";;;;.##O..;;.$=&=&&&&==$$@@OOO@$$&&&=&&&=O#OOOO@@.@@@@$.;;;;;;;;",
";;;;.OO.;;;;.====&&===$$@@OOOO@@==&&=&&&==O##O#O.;...@@@.;;;;;;;",
";;;;.O.;;;;.$=======$$$@@OOO#O@@==&&=&&&&=O###O##.;;;....;;;;;;;",
";;;;..;;;;;.$====$$@$@@@OOO##OO@$=&&&=&&&=OO###O##.;;;;;.;;;;;;;",
";;;;.;;;;;;.$@==$$$@@@@O#OO##OO@@==&&=&&&=@O#*##O#*.;;;;;;;;;;;;",
";;;;;;;;;;.$@$$$$$@..OO#*O#*#OO@@==&&=&&&=@O##*##O#*.;;;;;;;;;;;",
";;;;;;;;;;.$@$$$@..;;.#*O##*##O.@$=&&&&&&$@O##**###*.;;;;;;;;;;;",
";;;;;;;;;;.@$$@..;;;.#**O#**##. .$$=&&&&==@OO#****##*.;;;;;;;;;;",
";;;;;;;;;.@@$@.;;;;;.**O##**#O.X.@===&=&==@.OO#****#*.;;;;;;;;;;",
";;;;;;;;;.@@..;;;;;.***O#**##O.X.@$==&====.;.OO#******.;;;;;;;;;",
";;;;;;;;;.@.;;;;;;;.***#***#O. o .$$=====$.;;..O##**#*.;;;;;;;;;",
";;;;;;;;;..;;;;;;;.***#***##O.X+X.@$===$=$.;;;;.O##*##.;;;;;;;;;",
";;;;;;;;;.;;;;;;;;.***#**##O. Xo+ .$$==$=$.;;;;;..####.;;;;;;;;;",
";;;;;;;;;;;;;;;;;;.******#O.; oo+X.@$==$$$.;;;;;;;.###.;;;;;;;;;",
";;;;;;;;;;;;;;;;;.#**#**##O.; %+%oX.$$=$$$.;;;;;;;;.##.;;;;;;;;;",
";;;;;;;;;;;;;;;;;.#*#**##O.; +oo++X.@$$$$@.;;;;;;;;;.#.;;;;;;;;;",
";;;;;;;;;;;;;;;;;.#*#*##O.;; +%+%+oX.@$$$@.;;;;;;;;;;..;;;;;;;;;",
";;;;;;;;;;;;;;;;;.#####O.;;; %+o-%+oX.@$$.;;;;;;;;;;;;.;;;;;;;;;",
";;;;;;;;;;;;;;;;;.####O.;;;; +%%++oo+.@$@.;;;;;;;;;;;;;;;;;;;;;;",
";;;;;;;;;;;;;;;;;.####.;;;; +o%%%+%% ;.@@.;;;;;;;;;;;;;;;;;;;;;;",
";;;;;;;;;;;;;;;;;.O##O.;;;; +%+--o-% ;.@.;;;;;;;;;;;;;;;;;;;;;;;",
";;;;;;;;;;;;;;;;;.O#O.;;;;; %%%++%o-+ ;..;;;;;;;;;;;;;;;;;;;;;;;",
";;;;;;;;;;;;;;;;;;.#.;;;;;; +-o%%%%+o ;;.;;;;;;;;;;;;;;;;;;;;;;;",
";;;;;;;;;;;;;;;;;;..;;;;;;; oo+%%%-o% ;;;;;;;;;;;;;;;;;;;;;;;;;;",
";;;;;;;;;;;;;;;;;;..;;;;;;; %%%+--+%%+ ;;;;;;;;;;;;;;;;;;;;;;;;;",
";;;;;;;;;;;;;;;;;;.;;;;;;; ++-%o++o%+ ;;;;;;;;;;;;;;;;;;;;;;;;;;",
";;;;;;;;;;;;;;;;;;;;;;;;;;; +o+%%%%o+ ;;;;;;;;;;;;;;;;;;;;;;;;;;",
";;;;;;;;;;;;;;;;;;;;;;;;;;;; +%--%++ ; ;;;;;;;;;;;;;;;;;;;;;;;;;",
";;;;;;;;;;;;;;;;;;;;;;;;;;;;; ++%oo ;;;;;;;;;;;;;;;;;;;;;;;;;;;;",
";;;;;;;;;;;;;;;;;;;;;;;;;;;;;;   + ;;;;;;;;;;;;;;;;;;;;;;;;;;;;;",
";;;;;;;;;;;;;;;;;;;;;;;;;;;;; ;;; ;;;;;;;;;;;;;;;;;;;;;;;;;;;;;;",
";;;;;;;;;;;;;;;;;;;;;;;;;;;;;;;;;;;;;;;;;;;;;;;;;;;;;;;;;;;;;;;;",
";;;;;;;;;;;;;;;;;;;;;;;;;;;;;;;;;;;;;;;;;;;;;;;;;;;;;;;;;;;;;;;;",
";;;;;;;;;;;;;;;;;;;;;;;;;;;;;;;;;;;;;;;;;;;;;;;;;;;;;;;;;;;;;;;;",
";;;;;;;;;;;;;;;;;;;;;;;;;;;;;;;;;;;;;;;;;;;;;;;;;;;;;;;;;;;;;;;;",
";;;;;;;;;;;;;;;;;;;;;;;;;;;;;;;;;;;;;;;;;;;;;;;;;;;;;;;;;;;;;;;;",
";;;;;;;;;;;;;;;;;;;;;;;;;;;;;;;;;;;;;;;;;;;;;;;;;;;;;;;;;;;;;;;;"
};
