/* XPM */
static char *tree2[] = {
/* columns rows colors chars-per-pixel */
"32 32 247 2 ",
"   c #1A3F2B",
".  c #193A2C",
"X  c #2F3D2B",
"o  c #503B2B",
"O  c #1A422B",
"+  c #1B452B",
"@  c #1B462B",
"#  c #1B472B",
"$  c #1B462C",
"%  c #1B472C",
"&  c #1B482B",
"*  c #1B492B",
"=  c #1D4B2B",
"-  c #1C4C2B",
";  c #1C4D2B",
":  c #1C4E2B",
">  c #1C4F2B",
",  c #1D4F2B",
"<  c #1C4C2C",
"1  c #1C4F2C",
"2  c #1B502B",
"3  c #1A512B",
"4  c #1B512B",
"5  c #1B522B",
"6  c #1D502B",
"7  c #1C512B",
"8  c #1D512B",
"9  c #1C522B",
"0  c #1D522B",
"q  c #1D532B",
"w  c #1D542B",
"e  c #1D552B",
"r  c #1C572B",
"t  c #1E562B",
"y  c #1E572B",
"u  c #1C502C",
"i  c #1D532C",
"p  c #1D542C",
"a  c #1D552D",
"s  c #1D572C",
"d  c #1E582B",
"f  c #1E592B",
"g  c #1D5A2B",
"h  c #1E592C",
"j  c #1E5A2C",
"k  c #1E5B2C",
"l  c #1E5C2C",
"z  c #1E5D2C",
"x  c #1D5E2C",
"c  c #1E5E2C",
"v  c #1F5E2C",
"b  c #1F5F2C",
"n  c #264229",
"m  c #214A2C",
"M  c #27492D",
"N  c #214C2C",
"B  c #2D4C2D",
"V  c #3A412D",
"C  c #3C472E",
"Z  c #304B2E",
"A  c #324C2E",
"S  c #3B5F2A",
"D  c #1F602C",
"F  c #1F602D",
"G  c #1F622C",
"H  c #1F632C",
"J  c #1F642C",
"K  c #1F652C",
"L  c #1F662C",
"P  c #20672C",
"I  c #20682C",
"U  c #20682D",
"Y  c #206A2C",
"T  c #206A2D",
"R  c #206B2D",
"E  c #216D2C",
"W  c #206C2D",
"Q  c #206D2D",
"!  c #206E2D",
"~  c #216F2D",
"^  c #35642A",
"/  c #39692D",
"(  c #21712C",
")  c #21702D",
"_  c #21712D",
"`  c #21722D",
"'  c #21732D",
"]  c #21732E",
"[  c #22772C",
"{  c #21742E",
"}  c #21752E",
"|  c #21762E",
" . c #22762E",
".. c #22772E",
"X. c #22782E",
"o. c #22792E",
"O. c #227A2E",
"+. c #227B2E",
"@. c #237F2C",
"#. c #227C2E",
"$. c #227D2E",
"%. c #237E2E",
"&. c #237F2E",
"*. c #4E5029",
"=. c #5A5E2F",
"-. c #5E5C2F",
";. c #414330",
":. c #5B4331",
">. c #594F33",
",. c #654829",
"<. c #624C2A",
"1. c #76432A",
"2. c #74402C",
"3. c #7C442D",
"4. c #754C2D",
"5. c #744736",
"6. c #7E4430",
"7. c #775537",
"8. c #7B5635",
"9. c #775F34",
"0. c #7F5B34",
"q. c #496A2F",
"w. c #80482D",
"e. c #82482E",
"r. c #854A2F",
"t. c #8E5737",
"y. c #8F5835",
"u. c #925133",
"i. c #9F5737",
"p. c #905936",
"a. c #975A37",
"s. c #90593A",
"d. c #A5573C",
"f. c #A45938",
"g. c #A75A39",
"h. c #A45A3B",
"j. c #A65E3C",
"k. c #A85D38",
"l. c #AD5E3B",
"z. c #A9593C",
"x. c #A95B3D",
"c. c #A85F3C",
"v. c #AC5D3C",
"b. c #AC5C3D",
"n. c #AD5D3D",
"m. c #AF5E3D",
"M. c #B15E3E",
"N. c #B15F3E",
"B. c #8E6B39",
"V. c #916539",
"C. c #B3613C",
"Z. c #B3613D",
"A. c #B2603E",
"S. c #B3603E",
"D. c #B0633E",
"F. c #B4613E",
"G. c #B6623E",
"H. c #B7633E",
"J. c #B7643D",
"K. c #B9633E",
"L. c #B8643E",
"P. c #B9643F",
"I. c #BA653E",
"U. c #BA653F",
"Y. c #BB653F",
"T. c #BC663F",
"R. c #BD663F",
"E. c #BE673F",
"W. c #B5683E",
"Q. c #BF683F",
"!. c #C0683F",
"~. c #C36940",
"^. c #C36A40",
"/. c #C46B40",
"(. c #C56B40",
"). c #C66B40",
"_. c #C76D40",
"`. c #C86D41",
"'. c #23802E",
"]. c #23812E",
"[. c #23822E",
"{. c #23832E",
"}. c #24812C",
"|. c #24822C",
" X c #24832C",
".X c #25872C",
"XX c #24842E",
"oX c #24852E",
"OX c #24862E",
"+X c #24872E",
"@X c #258B2C",
"#X c #258A2D",
"$X c #258B2D",
"%X c #24882E",
"&X c #258C2D",
"*X c #258D2D",
"=X c #258E2D",
"-X c #258F2D",
";X c #268E2C",
":X c #26922C",
">X c #26952D",
",X c #27982C",
"<X c #27992C",
"1X c #27992D",
"2X c #279A2D",
"3X c #279B2D",
"4X c #279C2D",
"5X c #289A2C",
"6X c #289C2D",
"7X c #289D2D",
"8X c #289E2C",
"9X c #289F2C",
"0X c #289E2D",
"qX c #289F2D",
"wX c #28A02C",
"eX c #28A02D",
"rX c #28A12D",
"tX c #29A22C",
"yX c #29A32C",
"uX c #28A22D",
"iX c #29A42D",
"pX c #29A62C",
"aX c #29A72C",
"sX c #29A62D",
"dX c #29A72D",
"fX c #29A82D",
"gX c #2AA82C",
"hX c #2AA92C",
"jX c #2AAA2C",
"kX c #2AAB2C",
"lX c #2AAC2C",
"zX c #2AAD2C",
"xX c #2AAE2C",
"cX c #2BAE2C",
"vX c #2BAF2C",
"bX c #2BB12C",
"nX c #2BB22C",
"mX c #2BB32C",
"MX c #2BB42C",
"NX c #2CB52C",
"BX c #2CB62C",
"VX c #2CB72C",
"CX c #2CB82C",
"ZX c #2CB92C",
"AX c #2CBA2C",
"SX c #2CBB2C",
"DX c None",
/* pixels */
"DXDXDXDXDXDXDXDXDXDXDXDXDXDXq l E E e DXDXDXDXDXDXDXDXDXDXDXDXDX",
"DXDXDXDXDXDXDXDXDXDXDXu oX5XgXvXMXMXuXP DXDXDXDXDXDXDXDXDXDXDXDX",
"DXDXDXDXDXDXDXDXDXDXDX=XCXSXCXCXSXMXSXaXl H @ DXDXDXDXDXDXDXDXDX",
"DXDXDXDXDXDXDX[ >X}.}.BXCXCXCXCXMXSXSXMX:XvX8X( DXDXDXDXDXDXDXDX",
"DXDXDXDXh b }.VXSXkX2XbXCXCXCXCXSXSXSXvX,XMXSXvXY DXDXDXDXDXDXDX",
"DXDXDX XkXkX8XVXCXBXuXkXCXCXCXCXSXMXSXgXgXSXSXMXbXuX@.DXDXDXDXDX",
"DXDX}.CXCXCXVXCXCXCXCXCXCXCXCXCXMXSXSXMXSXMXSXSXCXCXVXP DXDXDXDX",
"DXb vXCXCXCXCXCXCXCXCXCXCXCXCXCXSXMXMXSXMXSXMXvXvXCXVX@XDXDXDXDX",
"DXL vXCXCXkX4XbXCXCXCXCXCXCXCXCXCXCXCXCXCXCXsX%.}.uX2XuXu DXDXDX",
"DXF oX>X&X&XuXBXBXbXBXCXCXCXCXCXCXCXCXCXCXbX%X+.X.X.'.kXQ DXDXDX",
"DXa X.X.[.vXbX2X%X[.oX2XBXCXCXCXCXCXCXBXuX4X&X%.X.$.X.'.X.u DXDX",
"DX$ ' X.oXvXoX..+.+.+.+.uXvXkXbXCXCXCXvX4XCXCX1X$.X.X.$.[ u DXDX",
"DXDXQ +.+.%X+.+.+.+.+.+.%.[.+.>XCXCXCXCXbXkX1X&X+.+.X.X...u . DX",
"DX< [ X.+.+.+.+.+.....+.+.+.+.1X8XbXCXCXsX>XOX+.X.$.X.[ Q h % DX",
"DXh [ X.+.+.+.+.+...+.+...+.+.%.+.uXCXCXBXCXvXoX+.+.X.Y h e < DX",
"DX< b Q +.+...+.+.+.+.+.+.+.+...+.-XjXbXvXuX@XX.+.+.X.X.' e < DX",
"DX: a [ X.$.X.X...+.+...X.X.X.X.+.+.+.[.%.+.+...] +.[ Y P a + DX",
"DX* q b Q Q P ' +.+.+.+.Q ' $.X.+.] +.+.+.+.+.Y b P D q u < DXDX",
"DXO q q u a Y ' +.+.+.+.Q F ' [ U U ..+.[ ..X.X.R u u q q   DXDX",
"DXDX+ : q e F [ ..+.[ [ P q e e b +.+.+.' D Q Y h u a a + DXDXDX",
"DXDXDXDXO & u a b P F h q q q : a ] X.[ F 2 < u q : : + DXDXDXDX",
"DXDXDXDXDXDXO # < u u 2 q : N N 2 a b h 2 M :.X DXDXDXDXDXDXDXDX",
"DXDXDXDXDXDXDXDXDXO n C >.8.s.5.;.Z B A V o DXDXDXDXDXDXDXDXDXDX",
"DXDXDXDXDXDXDXDXDXDXDX6.T.!.!.b.x.D.j.j.2.DXDXDXDXDXDXDXDXDXDXDX",
"DXDXDXDXDXDXDXDXDXDXDX3.m./.!.N.!.!.T.f.DXDXDXDXDXDXDXDXDXDXDXDX",
"DXDXDXDXDXDXDXDXDXDXDXe.D.Y.T.F.!.!.N.f.DXDXDXDXDXDXDXDXDXDXDXDX",
"DXDXDXDXDXDXDXDXDXDXDXr.Y.Y.F.K.F.Y.N.f.DXDXDXDXDXDXDXDXDXDXDXDX",
"DXDXDXDXDXDXDXDXDXDXDXu.F.N.F.K.N.F.N.D.1.DXDXDXDXDXDXDXDXDXDXDX",
"DXDXDXDXDXDXDXDXDXDXe.m.b.T.!.F.T.T.D.K.k.<.DXDXDXDXDXDXDXDXDXDX",
"DXDXDXDXDXDXDXDXDX^ 9.f.F.).N.N.`.`.Y.d.j.t.*.DXDXDXDXDXDXDXDXDX",
"DXDXDXDXDXDXDXDXDXDXS p.W.V.8.a.t.B.K.p.,.DXDXDXDXDXDXDXDXDXDXDX",
"DXDXDXDXDXDXDXDXDXDXDX=.-.DXDXDXDX/ 4.q.DXDXDXDXDXDXDXDXDXDXDXDX"
};
