/* XPM */
static char *tree6_3[] = {
/* columns rows colors chars-per-pixel */
"32 32 14 1 ",
"  c #3D1D1A",
". c #0D2924",
"X c #4B2925",
"o c #5C3434",
"O c #1B473E",
"+ c #6D423A",
"@ c #226043",
"# c #256642",
"$ c #2C7C44",
"% c #97593E",
"& c #4AB734",
"* c #3B9842",
"= c #B88741",
"- c None",
/* pixels */
"O.$**&*.---.OO#.----------------",
".X.$$**$.---....----------------",
".X.@$$*$.------.----------------",
"XoX.@$$$.-----------------------",
"o+ -.@$$.-----------------------",
"+%o -.@$.-----------------------",
"+o% --.@.-----------------------",
"=%%+ --..-----------------------",
"+%=o ---.-----------------------",
"%+o%+ --------------------------",
"+=%+ ---------------------------",
"%+o ----------------------------",
" o -----------------------------",
"- ------------------------------",
"--------------------------------",
"--------------------------------",
"--------------------------------",
"--------------------------------",
"--------------------------------",
"--------------------------------",
"--------------------------------",
"--------------------------------",
"--------------------------------",
"--------------------------------",
"--------------------------------",
"--------------------------------",
"--------------------------------",
"--------------------------------",
"--------------------------------",
"--------------------------------",
"--------------------------------",
"--------------------------------"
};
