/* XPM */
static char *tree6[] = {
/* columns rows colors chars-per-pixel */
"64 64 15 1 ",
"  c #3D1D1A",
". c #0D2924",
"X c #4B2925",
"o c #5C3434",
"O c #1B473E",
"+ c #6D423A",
"@ c #226043",
"# c #256642",
"$ c #2C7C44",
"% c #97593E",
"& c #4AB734",
"* c #348B40",
"= c #3B9842",
"- c #B88741",
"; c None",
/* pixels */
";;;;;;;;;;;;;;;;;;;;;;;;;;;;;;;;;;;;;;;;;;;;;;;;;;;;;;;;;;;;;;;;",
";;;;;;;;;;;;;;;;;;;;;;;;;;;;;;;;;;;;;;;;;;;;;;;;;;;;;;;;;;;;;;;;",
";;;;;;;;;;;;;;;;;;;;;;;;;;;;;;;;;;;;;;;;;;;;;;;;;;;;;;;;;;;;;;;;",
";;;;;;;;;;;;;;;;;;;;;;;;;;;;;;;;;;;;;;;;;;;;;;;;;;;;;;;;;;;;;;;;",
";;;;;;;;;;;;;;;;;;;;;;;;;;;;;;;;;;;;;;;;;;;;;;;;;;;;;;;;;;;;;;;;",
";;;;;;;;;;;;;;;;;;;;;;;;;;;;;;;;;;;;;;;;;;;;;;;;;;;;;;;;;;;;;;;;",
";;;;;;;;;;;;;;;;;;;;;;;;;;;;;;;;;;;;;;;;;;;;;;;;;;;;;;;;;;;;;;;;",
";;;;;;;;;;;;;;;;;;;;;;;;;;;;;;;;;;;;;;;;;;;;;;;;;;;;;;;;;;;;;;;;",
";;;;;;;;;;;;;;;;;;;;;;;;;;;;;;;;;;;;;;;;;;;;;;;;;;;;;;;;;;;;;;;;",
";;;;;;;;;;;;;;;;;;;;;;;;;;;;;;;;;;;;;;;;;;;;;;;;;;;;;;;;;;;;;;;;",
";;;;;;;;;;;;;;;;;;;;;;;;;;;;;;;;;;;;;;;;;;;;;;;;;;;;;;;;;;;;;;;;",
";;;;;;;;;;;;;;;;;;;;;;;;;;;;;;;;;;;;;;;;;;;;;;;;;;;;;;;;;;;;;;;;",
";;;;;;;;;;;;;;;;;;;;;;;;;;;;;;;;;;;;;;;;;;;;;;;;;;;;;;;;;;;;;;;;",
";;;;;;;;;;;;;;;;;;;;;;;;;;;;;;;;;;;;;;;;;;;;;;;;;;;;;;;;;;;;;;;;",
";;;;;;;;;;;;;;;;;;;;;......;;;;;;.......;;;;;;;;;;;;;;;;;;;;;;;;",
";;;;;;;;;;;;;;;;;;;...$$$=&..;;;.#*O***#..;;;;;;;;;;;;;;;;;;;;;;",
";;;;;;;;;;;;;;;;;;;;;;.@$=&&&.;.##O####OO...;;;;;;;;;;;;;;;;;;;;",
";;;;;;;;;;;;;;;;;;;;;;;.@$$&&=.OOO#OOOOO.;;;;;;;;;;;;;;;;;;;;;;;",
";;;;;;;;;;;;;;;;;;;;;;.O@@$=&@=&OOOO==&&&..;;;;;;;;;;;;;;;;;;;;;",
";;;;;;;;;;;;;;;;;;;;..*#O@@$==@$OO@@@===&&&..;;;;;;;;;;;;;;;;;;;",
";;;;;;;;;;;;;;;;;;;.*#OOOO@@$$$@@$$===&&&====.;;;;;;;;;;;;;;;;;;",
";;;;;;;;;;;;;;;;;;.*#O**##O@@@@$@$@@$====$$@$=.;;;;;;;;;;;;;;;;;",
";;;;;;;;;;;;;;;;;.#***###OOO=@@@@@O@@@$$$@...$$.;;;;;;;;;;;;;;;;",
";;;;;;;;;;;;;;;;;.#*##OOO&&=@&&=@==O@@@@@.;;;....;;;;;;;;;;;;;;;",
";;;;;;;;;;;;;;;;;.##OOO=&&=$&==@=@&=OOOOOO.;;;;;.;;;;;;;;;;;;;;;",
";;;;;;;;;;;;;;;;.#OO.O=&&=&&==@@=$=&OO##O##.;;;;;;;;;;;;;;;;;;;;",
";;;;;;;;;;;;;;;;....;.=&&&&=@@O@=&$&&OO##O*#.;;;;;;;;;;;;;;;;;;;",
";;;;;;;;;;;;;;;;.;;;.==&&$=@@OO@=&&=&=OO###*#.;;;;;;;;;;;;;;;;;;",
";;;;;;;;;;;;;;;;;;;.$====$@@O#O@@&&=&&=O#**#*.;;;;;;;;;;;;;;;;;;",
";;;;;;;;;;;;;;;;;;;.$$==$@@O##O@@@&&&&=OO#***#.;;;;;;;;;;;;;;;;;",
";;;;;;;;;;;;;;;;;;;.$@$@..O#*##O@=&&&&==.O##*#.;;;;;;;;;;;;;;;;;",
";;;;;;;;;;;;;;;;;;.$$@..;;.***#O@@=&&&=.;..O##.;;;;;;;;;;;;;;;;;",
";;;;;;;;;;;;;;;;;;....;;;.#*#*OOO.$==&=.;;;.OO#.;;;;;;;;;;;;;;;;",
";;;;;;;;;;;;;;;;;;.;;;;;;.*##*#O.X.$$==$.;;;....;;;;;;;;;;;;;;;;",
";;;;;;;;;;;;;;;;;;;;;;;;;.#O*##O.X.@$$=$.;;;;;;.;;;;;;;;;;;;;;;;",
";;;;;;;;;;;;;;;;;;;;;;;;;.O#*#O.XoX.@$$$.;;;;;;;;;;;;;;;;;;;;;;;",
";;;;;;;;;;;;;;;;;;;;;;;;.#O##O.Xo+ ;.@$$.;;;;;;;;;;;;;;;;;;;;;;;",
";;;;;;;;;;;;;;;;;;;;;;;;.#O##O.X+%o ;.@$.;;;;;;;;;;;;;;;;;;;;;;;",
";;;;;;;;;;;;;;;;;;;;;;;;.O##O.X%+o% ;;.@.;;;;;;;;;;;;;;;;;;;;;;;",
";;;;;;;;;;;;;;;;;;;;;;;;.O#O.X++-%%+ ;;..;;;;;;;;;;;;;;;;;;;;;;;",
";;;;;;;;;;;;;;;;;;;;;;;;.O..; o%+%-o ;;;.;;;;;;;;;;;;;;;;;;;;;;;",
";;;;;;;;;;;;;;;;;;;;;;;;..;;; %%%+o%+ ;;;;;;;;;;;;;;;;;;;;;;;;;;",
";;;;;;;;;;;;;;;;;;;;;;;;.;;;; o-+-%+ ;;;;;;;;;;;;;;;;;;;;;;;;;;;",
";;;;;;;;;;;;;;;;;;;;;;;;;;;; ; o%+o ;;;;;;;;;;;;;;;;;;;;;;;;;;;;",
";;;;;;;;;;;;;;;;;;;;;;;;;;;;;;;  o ;;;;;;;;;;;;;;;;;;;;;;;;;;;;;",
";;;;;;;;;;;;;;;;;;;;;;;;;;;;;;;;; ;;;;;;;;;;;;;;;;;;;;;;;;;;;;;;",
";;;;;;;;;;;;;;;;;;;;;;;;;;;;;;;;;;;;;;;;;;;;;;;;;;;;;;;;;;;;;;;;",
";;;;;;;;;;;;;;;;;;;;;;;;;;;;;;;;;;;;;;;;;;;;;;;;;;;;;;;;;;;;;;;;",
";;;;;;;;;;;;;;;;;;;;;;;;;;;;;;;;;;;;;;;;;;;;;;;;;;;;;;;;;;;;;;;;",
";;;;;;;;;;;;;;;;;;;;;;;;;;;;;;;;;;;;;;;;;;;;;;;;;;;;;;;;;;;;;;;;",
";;;;;;;;;;;;;;;;;;;;;;;;;;;;;;;;;;;;;;;;;;;;;;;;;;;;;;;;;;;;;;;;",
";;;;;;;;;;;;;;;;;;;;;;;;;;;;;;;;;;;;;;;;;;;;;;;;;;;;;;;;;;;;;;;;",
";;;;;;;;;;;;;;;;;;;;;;;;;;;;;;;;;;;;;;;;;;;;;;;;;;;;;;;;;;;;;;;;",
";;;;;;;;;;;;;;;;;;;;;;;;;;;;;;;;;;;;;;;;;;;;;;;;;;;;;;;;;;;;;;;;",
";;;;;;;;;;;;;;;;;;;;;;;;;;;;;;;;;;;;;;;;;;;;;;;;;;;;;;;;;;;;;;;;",
";;;;;;;;;;;;;;;;;;;;;;;;;;;;;;;;;;;;;;;;;;;;;;;;;;;;;;;;;;;;;;;;",
";;;;;;;;;;;;;;;;;;;;;;;;;;;;;;;;;;;;;;;;;;;;;;;;;;;;;;;;;;;;;;;;",
";;;;;;;;;;;;;;;;;;;;;;;;;;;;;;;;;;;;;;;;;;;;;;;;;;;;;;;;;;;;;;;;",
";;;;;;;;;;;;;;;;;;;;;;;;;;;;;;;;;;;;;;;;;;;;;;;;;;;;;;;;;;;;;;;;",
";;;;;;;;;;;;;;;;;;;;;;;;;;;;;;;;;;;;;;;;;;;;;;;;;;;;;;;;;;;;;;;;",
";;;;;;;;;;;;;;;;;;;;;;;;;;;;;;;;;;;;;;;;;;;;;;;;;;;;;;;;;;;;;;;;",
";;;;;;;;;;;;;;;;;;;;;;;;;;;;;;;;;;;;;;;;;;;;;;;;;;;;;;;;;;;;;;;;",
";;;;;;;;;;;;;;;;;;;;;;;;;;;;;;;;;;;;;;;;;;;;;;;;;;;;;;;;;;;;;;;;",
";;;;;;;;;;;;;;;;;;;;;;;;;;;;;;;;;;;;;;;;;;;;;;;;;;;;;;;;;;;;;;;;"
};
