/* XPM */
static char *tree3[] = {
/* columns rows colors chars-per-pixel */
"32 32 4 1 ",
"  c #1D522B",
". c #227A2E",
"X c #2CB82C",
"o c None",
/* pixels */
"oooooooooooooooooooooooooooooooo",
"oooooooooooooooooooooooooooooooo",
"oooooooooooooooooooooooooooooooo",
"ooooooo      ooooooooooooooooooo",
"ooooo   XXXX   ooooooooooooooooo",
"oooo  XXXXXXXX         ooooooooo",
"ooo   XXXXXXXXX XXXXX    ooooooo",
"oo  X  XX..XXX   XXX  XX   ooooo",
"oo XXXXXX.XXXXXXXXXXXXXXXX  oooo",
"o  XX..XXXXXXX..XXXXX..XXXX  ooo",
"o   X.XXXXXXXXX.XXXXX.XXXXX  ooo",
"  X XXXXXXXXXXXXXXXXXXXXXX   ooo",
" XXXXXXXXX.XXXXXXXXXXXXX.X .  oo",
" XXXXXXXXX..XXXXXX.XXXX..XX.. oo",
" XXX.XXXXXXXXXXXXX..XXXXXXXX.  o",
" .XX..XXX...XXXXXXXXXX.XXXXX.  o",
" ..XXXXX.....XXXXXXXX..XXXX..  o",
"  ..XXX......XXXX..XXXXXXXX... o",
"   ...........XX....XXXXXX...  o",
"    .......X.........XXXX....  o",
"o    ....X........X...XX....   o",
"o      ....... . ...X......    o",
"oo     ......     .....  .    oo",
"ooo      ...       ...       ooo",
"oooo                        oooo",
"oooooo                    oooooo",
"ooooooooo              ooooooooo",
"oooooooooooo        oooooooooooo",
"oooooooooooooooooooooooooooooooo",
"oooooooooooooooooooooooooooooooo",
"oooooooooooooooooooooooooooooooo",
"oooooooooooooooooooooooooooooooo"
};
