/* XPM */
static char *tree7_0[] = {
/* columns rows colors chars-per-pixel */
"32 32 9 1 ",
"  c #0D2924",
". c #1B473E",
"X c #226043",
"o c #256642",
"O c #2C7C44",
"+ c #4AB734",
"@ c #348B40",
"# c #3B9842",
"$ c None",
/* pixels */
"$$$$$$$$$$$$$$$$$$$$$$$$$$$$$$$$",
"$$$$$$$$$$$$$$$$$$$$$$$$$$$$$$$$",
"$$$$$$$$$$$$$$$$$$$$$$$$$$$$$$$$",
"$$$$$$$$$$$$$$$$$$$$$$$$$$$$$$$$",
"$$$$$$$$$$$$$$$$$$$$$$$$$$$$$$$$",
"$$$$$$$$$$$$$$$$$$$$$$$$$$$$$$$$",
"$$$$$$$$$$$$$$$$$$$$$$$$$$$$$$$$",
"$$$$$$$$$$$$$$$$$$$$$$$$$$$$$$$$",
"$$$$$$$$$$$$$$$$$$$$$$$$$$$$$$$$",
"$$$$$$$$$$$$$$$$$$$$$$$$$$$$$$$$",
"$$$$$$$$$$$$$$$$$$$$$$$$$$$$$$$$",
"$$$$$$$$$$$$$$$$$$$$$$$$$$$$$$$$",
"$$$$$$$$$$$$$$$$$$$$$$$$$$$$$$$$",
"$$$$$$$$$$$$$$$$$$$$$$$$$$$$$$$$",
"$$$$$$$$$$$$$$$$$$$$$      $$$$$",
"$$$$$$$$$$$$$$$$$$$   OOO#+  $$$",
"$$$$$$$$$$$$$$$$$$$$$$ XO#+++ $ ",
"$$$$$$$$$$$$$$$$$$$$$$$ XOO++# .",
"$$$$$$$$$$$$$$$$$$$$$$ .XXO#+X#+",
"$$$$$$$$$$$$$$$$$$$$  @o.XXO##XO",
"$$$$$$$$$$$$$$$$$$$ @o....XXOOOX",
"$$$$$$$$$$$$$$$$$$ @o.@@oo.XXXXO",
"$$$$$$$$$$$$$$$$$ o@@@ooo...#XXX",
"$$$$$$$$$$$$$$$$$ o@oo...++#X++#",
"$$$$$$$$$$$$$$$$$ oo...#++#O+##X",
"$$$$$$$$$$$$$$$$ o.. .#++#++##XX",
"$$$$$$$$$$$$$$$$    $ #++++#XX.X",
"$$$$$$$$$$$$$$$$ $$$ ##++O#XX..X",
"$$$$$$$$$$$$$$$$$$$ O####OXX.o.X",
"$$$$$$$$$$$$$$$$$$$ OO##OXX.oo.X",
"$$$$$$$$$$$$$$$$$$$ OXOX  .o@oo.",
"$$$$$$$$$$$$$$$$$$ OOX  $$ @@@o."
};
