/* XPM */
static char *tree6_1[] = {
/* columns rows colors chars-per-pixel */
"32 32 9 1 ",
"  c #0D2924",
". c #1B473E",
"X c #226043",
"o c #256642",
"O c #2C7C44",
"+ c #4AB734",
"@ c #348B40",
"# c #3B9842",
"$ c None",
/* pixels */
"$$$$$$$$$$$$$$$$$$$$$$$$$$$$$$$$",
"$$$$$$$$$$$$$$$$$$$$$$$$$$$$$$$$",
"$$$$$$$$$$$$$$$$$$$$$$$$$$$$$$$$",
"$$$$$$$$$$$$$$$$$$$$$$$$$$$$$$$$",
"$$$$$$$$$$$$$$$$$$$$$$$$$$$$$$$$",
"$$$$$$$$$$$$$$$$$$$$$$$$$$$$$$$$",
"$$$$$$$$$$$$$$$$$$$$$$$$$$$$$$$$",
"$$$$$$$$$$$$$$$$$$$$$$$$$$$$$$$$",
"$$$$$$$$$$$$$$$$$$$$$$$$$$$$$$$$",
"$$$$$$$$$$$$$$$$$$$$$$$$$$$$$$$$",
"$$$$$$$$$$$$$$$$$$$$$$$$$$$$$$$$",
"$$$$$$$$$$$$$$$$$$$$$$$$$$$$$$$$",
"$$$$$$$$$$$$$$$$$$$$$$$$$$$$$$$$",
"$$$$$$$$$$$$$$$$$$$$$$$$$$$$$$$$",
"$       $$$$$$$$$$$$$$$$$$$$$$$$",
" o@.@@@o  $$$$$$$$$$$$$$$$$$$$$$",
"oo.oooo..   $$$$$$$$$$$$$$$$$$$$",
"..o..... $$$$$$$$$$$$$$$$$$$$$$$",
"....##+++  $$$$$$$$$$$$$$$$$$$$$",
"..XXX###+++  $$$$$$$$$$$$$$$$$$$",
"XOO###+++#### $$$$$$$$$$$$$$$$$$",
"XOXXO####OOXO# $$$$$$$$$$$$$$$$$",
"XX.XXXOOOX   OO $$$$$$$$$$$$$$$$",
"X##.XXXXX $$$    $$$$$$$$$$$$$$$",
"#X+#...... $$$$$ $$$$$$$$$$$$$$$",
"#O#+..oo.oo $$$$$$$$$$$$$$$$$$$$",
"#+O++..oo.@o $$$$$$$$$$$$$$$$$$$",
"#++#+#..ooo@o $$$$$$$$$$$$$$$$$$",
"X++#++#.o@@o@ $$$$$$$$$$$$$$$$$$",
"XX++++#..o@@@o $$$$$$$$$$$$$$$$$",
"X#++++## .oo@o $$$$$$$$$$$$$$$$$",
"XX#+++# $  .oo $$$$$$$$$$$$$$$$$"
};
