/* XPM */
static char *tree6_2[] = {
/* columns rows colors chars-per-pixel */
"32 32 11 1 ",
"  c #3D1D1A",
". c #0D2924",
"X c #4B2925",
"o c #5C3434",
"O c #1B473E",
"+ c #6D423A",
"@ c #256642",
"# c #97593E",
"$ c #348B40",
"% c #B88741",
"& c None",
/* pixels */
"&&&&&&&&&&&&&&&&&&....&&&.@$@$OO",
"&&&&&&&&&&&&&&&&&&.&&&&&&.$@@$@O",
"&&&&&&&&&&&&&&&&&&&&&&&&&.@O$@@O",
"&&&&&&&&&&&&&&&&&&&&&&&&&.O@$@O.",
"&&&&&&&&&&&&&&&&&&&&&&&&.@O@@O.X",
"&&&&&&&&&&&&&&&&&&&&&&&&.@O@@O.X",
"&&&&&&&&&&&&&&&&&&&&&&&&.O@@O.X#",
"&&&&&&&&&&&&&&&&&&&&&&&&.O@O.X++",
"&&&&&&&&&&&&&&&&&&&&&&&&.O..& o#",
"&&&&&&&&&&&&&&&&&&&&&&&&..&&& ##",
"&&&&&&&&&&&&&&&&&&&&&&&&.&&&& o%",
"&&&&&&&&&&&&&&&&&&&&&&&&&&&& & o",
"&&&&&&&&&&&&&&&&&&&&&&&&&&&&&&& ",
"&&&&&&&&&&&&&&&&&&&&&&&&&&&&&&&&",
"&&&&&&&&&&&&&&&&&&&&&&&&&&&&&&&&",
"&&&&&&&&&&&&&&&&&&&&&&&&&&&&&&&&",
"&&&&&&&&&&&&&&&&&&&&&&&&&&&&&&&&",
"&&&&&&&&&&&&&&&&&&&&&&&&&&&&&&&&",
"&&&&&&&&&&&&&&&&&&&&&&&&&&&&&&&&",
"&&&&&&&&&&&&&&&&&&&&&&&&&&&&&&&&",
"&&&&&&&&&&&&&&&&&&&&&&&&&&&&&&&&",
"&&&&&&&&&&&&&&&&&&&&&&&&&&&&&&&&",
"&&&&&&&&&&&&&&&&&&&&&&&&&&&&&&&&",
"&&&&&&&&&&&&&&&&&&&&&&&&&&&&&&&&",
"&&&&&&&&&&&&&&&&&&&&&&&&&&&&&&&&",
"&&&&&&&&&&&&&&&&&&&&&&&&&&&&&&&&",
"&&&&&&&&&&&&&&&&&&&&&&&&&&&&&&&&",
"&&&&&&&&&&&&&&&&&&&&&&&&&&&&&&&&",
"&&&&&&&&&&&&&&&&&&&&&&&&&&&&&&&&",
"&&&&&&&&&&&&&&&&&&&&&&&&&&&&&&&&",
"&&&&&&&&&&&&&&&&&&&&&&&&&&&&&&&&",
"&&&&&&&&&&&&&&&&&&&&&&&&&&&&&&&&"
};
