/* XPM */
static char *W_1[] = {
/* columns rows colors chars-per-pixel */
"20 20 4 1 ",
"  c black",
". c #AE411A",
"X c #D4A71F",
"o c None",
/* pixels */
"oooooooooooooooooooo",
"oooooooooooooooooooo",
"        oo        oo",
"        oo        oo",
"  XXXX      XXXX  oo",
"  XXXX      XXXX  oo",
"  XXXX  XX  XXXX  oo",
"  XXXX  XX  XXXX  oo",
"  XXXXXXXXXXXXXX  oo",
"  XXXXXXXXXXXXXX  oo",
"  XXXXXX..XXXXXX  oo",
"  XXXXXX..XXXXXX  oo",
"  XXXX..  ..XXXX  oo",
"  XXXX..  ..XXXX  oo",
"  ....      ....  oo",
"  ....      ....  oo",
"        oo        oo",
"        oo        oo",
"oooooooooooooooooooo",
"oooooooooooooooooooo"
};
