/* XPM */
static char *W_5[] = {
/* columns rows colors chars-per-pixel */
"10 10 4 1 ",
"  c black",
". c #AE411A",
"X c #D4A71F",
"o c None",
/* pixels */
"oooooooooo",
"o    o    ",
"  XX   XX ",
" .XX X.XX ",
" .XXXXXXX ",
" .XXX.XXX ",
" .XX ..XX ",
" ..   ..  ",
"    o    o",
"oooooooooo"
};
