/* XPM */
static char *w_dark[] = {
/* columns rows colors chars-per-pixel */
"38 41 99 2 ",
"   c #43495F",
".  c #434A5E",
"X  c #424A5F",
"o  c #434A5F",
"O  c #424A60",
"+  c #444B60",
"@  c #444B61",
"#  c #454C60",
"$  c #454D61",
"%  c #454D62",
"&  c #464C62",
"*  c #464E63",
"=  c #474E63",
"-  c #484F64",
";  c #495065",
":  c #4A5166",
">  c #4B5267",
",  c #4C5367",
"<  c #4C5368",
"1  c #4E556A",
"2  c #50576C",
"3  c #53596F",
"4  c #525A6F",
"5  c #505870",
"6  c #515870",
"7  c #515970",
"8  c #565C71",
"9  c #545C72",
"0  c #555D72",
"q  c #575E73",
"w  c #565D74",
"e  c #565E77",
"r  c #575E77",
"t  c #585E74",
"y  c #585F75",
"u  c #595F75",
"i  c #5A6076",
"p  c #5A6177",
"a  c #5B6278",
"s  c #5C6278",
"d  c #5C6378",
"f  c #5D637A",
"g  c #5F657B",
"h  c #60667D",
"j  c #61677D",
"k  c #61687E",
"l  c #646A80",
"z  c #646A81",
"x  c #646B81",
"c  c #666D82",
"v  c #636A85",
"b  c #636B85",
"n  c #676D85",
"m  c #676E84",
"M  c #676F85",
"N  c #686E84",
"B  c #686E85",
"V  c #697086",
"C  c #697087",
"Z  c #6B7188",
"A  c #6D738A",
"S  c #6E748B",
"D  c #6E758B",
"F  c #70768C",
"G  c #70778D",
"H  c #71778F",
"J  c #71788E",
"K  c #72788F",
"L  c #6D7592",
"P  c #737990",
"I  c #757B92",
"U  c #757C93",
"Y  c #777E94",
"T  c #797E95",
"R  c #798097",
"E  c #7A8197",
"W  c #7A8098",
"Q  c #7A8198",
"!  c #7B8298",
"~  c #7B8299",
"^  c #7E849B",
"/  c #81879E",
"(  c #8288A0",
")  c #8389A1",
"_  c #848AA2",
"`  c #858AA2",
"'  c #858BA2",
"]  c #858BA3",
"[  c #868CA4",
"{  c #878EA5",
"}  c #888DA5",
"|  c #888EA6",
" . c #898FA6",
".. c #888EA7",
"X. c #898FA7",
"o. c #8A90A8",
"O. c #A7ADBE",
"+. c #A8ACBD",
"@. c None",
/* pixels */
"@.@.@.@.@.O o o o o o o o o o o o o o o o o o o o o o o o o o o O @.@.@.@.@.",
"@.@.@.o o o o o o o o o o o o o o o o o o o o o o o o o o o o o o o o @.@.@.",
"@.@.. o o o o o o o O . o o o o o o o o o o o o o o o o o o o o o o o o @.@.",
"@.. O o o o o o o o o . o o o o o o o o o o o o o o o o o o o o o o o o o @.",
"@.o o o o # s z z z z z z z z z z z z z z z z z z z z z z z z s # O + o o @.",
"O o o o # R o.o.o.o.o.o.o.o.o.o.o.o.o.o.o.o.o.o.o.o.o.o.o.o.o.o.T # . O o o ",
"o o o o a o.o.o.o.o.o.o.o.o.o.o.o.o.o.o.o.o.o.o.o.o.o.o.o.o.o.o.o.i o o o . ",
"o o O . z o.o.o.o.o.o.o.o.o.o.o.o.o.o.o.o.o.o.o.o.o.o.o.o.o.o.o.o.x o o o O ",
"o o o o x o.o.o.o.o.o.o.o.o.o.o.o...o...o.o.o.o.o.o...o.o.o.o.o.o.x o o o o ",
"o o o o x o.o.o.] D S D R o.o.o.o.F F S D o.o.o.o.R S D D ) o.o.o.x o o o o ",
"o o o o x o.o.o.X.# o o i o.o.o.) + o o + ^ o.o.o.i . O # X.o.o.o.x o o o o ",
"o o o o x o.o.o.o.0 o o < o.o.o.F o o O . S o.o.o.> . . 0 o.o.o.o.x o o o o ",
"o o o o z o.o.o.o.B o o o ) o.o.j + O o o s o.o.) o o o B o.o.o.o.x o o o o ",
"o o o o x o.o.o.o.Q o o o U o.o.1 + o o o , o.o.I o o o Q o.o.o.o.x o o o o ",
"o o o o x o.o.o.o...* o o B o.) + + + & o o ( o.N . o = o.o.o.o.o.x o o o o ",
"o o o o x o.o.o.o.o.w O o i o.P o + 8 9 O . J o.u . o u o.o.o.o.o.x o o o o ",
"o o o o x o.o.o.o.o.V o o , o.j o o n z o o j o.> . . Z ..o.o.o.o.x o o o o ",
"o o o o x o.o.o.o.o.! o o o ) 3 o o T T o o 2 ) O . . / o.o.o.o.o.x o o o o ",
"o o O o x o.o.o.o.o.o.# o o J o + # X.X.+ O + F o o - ..o.o.o.o.o.x o o o o ",
"o o . + x o.o.o.o.o.o.t o o 3 o + 0 ..X.3 O . 3 o o s o.o.o.o.o.o.x o o o o ",
"o o o o x o.o.o.o.o.o.V o o o o O B o.o.z . o o o o D o.o.o.o.o.o.x o o o o ",
"o o o o x o.o.o.o.o.o.! o o o o o R o.o.U . o O o + / o.o.o.o.o.o.x o o o o ",
"o o o o x o.o.o.o.o.o.o.= o o + # o.o.o.[ # + . o , o.o.o.o.o.o.o.x o o o o ",
"o o o o x o.o.o.o.o.o.o.h < < < d o.o.o.o.0 < < , z o.o.o.o.o.o.o.x o o o o ",
"o o o o z o.o.o.o.o.o.o.o.o.o.o.o.o.o.o.o.o.o.o...o.o.o.o.o.o.o.o.x o o o o ",
"o o o o x o.o.o.o.o.o.o.o.o.o.o.o.o.o.o.o.o.o.o.o.o.o.o.o.o.o.o.o.x o o o o ",
"o o o o x o.o.o.o.o.o.o.o.o.o.o.o.o.o.o.o.o.o.o.o.o.o.o.o.o.o.o.o.x o o o o ",
"o o o o x o.o.o.o.o.o.o.o.o.o.o.o.o.o.o.o.o.o.o.o.o.o.o.o.o.o.o.o.x o o o o ",
"o o o o x o.o.o.o.o.o.o.o.o.o.o.o.o.o.o.o.o.o.o.o.o.o.o.o.o.o.o.o.x o o o o ",
"o o o o x o.o.o.o.o.o.o.o.o.o.o.o.o.o.o.o.o.o.o.o.o.o.o.o.o.o.o.o.x o o o o ",
"o o o o x o.o.o.o.o.o.o.o.o.o.o.o.o.o.o.o.o.o.o.o.o.o.o.o.o.o.o.o.x o o o o ",
"o o o o x o.o.o.o.o.o.o.o.o.o.o.o.o.o.o.o.o.o.o.o.o.o.o.o.o.o.o.o.z o o o o ",
"o o o o z +.+.+.+.O.O.O.L L L L L L L L L L L L L L O.O.+.O.+.+.+.z O O o o ",
"o o o o r L L L L L L L L L L L L L L L L L L L L L L L L L L L L r . + o O ",
"o o o o 7 L L L L L L L L L L L L L L L L L L L L L L L L L L L L 6 O o o . ",
"o o o o O v L L L L L L L L L L L L L L L L L L L L L L L L L L v + o o o o ",
"@.o o o o + 7 u r u r u r r r r u r r u r u r u r r u e e r u 6 + . o o o @.",
"@.o o o o o o o O O O o O + o O o o O O O O O o O O o o O O o o o O o o o @.",
"@.@.o o o o o o O o o o o o o o o o o o O o o o o o o o   o o o o o o o @.@.",
"@.@.@.o o o o o o o o o o o o o o o o o o o o o o o o o o o o o o o o @.@.@.",
"@.@.@.@.@.o o o o o o o o o o o o o o o o o o o o o o o o o o o o @.@.@.@.@."
};
