/* XPM */
static char *w_light[] = {
/* columns rows colors chars-per-pixel */
"38 41 109 2 ",
"   c #43495F",
".  c #434A5E",
"X  c #424A5F",
"o  c #434A5F",
"O  c #424A60",
"+  c #444B60",
"@  c #454C61",
"#  c #464D61",
"$  c #464D62",
"%  c #484F63",
"&  c #494F64",
"*  c #495064",
"=  c #4B5266",
"-  c #4C5367",
";  c #4E5468",
":  c #51586B",
">  c #52596C",
",  c #53596C",
"<  c #555B6E",
"1  c #575D6F",
"2  c #595F71",
"3  c #5C6274",
"4  c #606677",
"5  c #616677",
"6  c #666B7C",
"7  c #666C7C",
"8  c #696E7C",
"9  c #6A6E7C",
"0  c #6A6F7D",
"q  c #6B7181",
"w  c #6D7281",
"e  c #6D7382",
"r  c #707585",
"t  c #717685",
"y  c #727786",
"u  c #737887",
"i  c #747987",
"p  c #757988",
"a  c #777B8A",
"s  c #7A7D89",
"d  c #787D8B",
"f  c #797E8C",
"g  c #7A7F8D",
"h  c #7B7F8D",
"j  c #7C818E",
"k  c #7E8290",
"l  c #828693",
"z  c #848895",
"x  c #878B97",
"c  c #888C98",
"v  c #8D909C",
"b  c #8E929D",
"n  c #8F929E",
"m  c #8F939E",
"M  c #9296A0",
"N  c #9599A3",
"B  c #9699A4",
"V  c #979AA4",
"C  c #979BA5",
"Z  c #9B9DA2",
"A  c #9C9DA2",
"S  c #999DA6",
"D  c #9B9FA8",
"F  c #9A9EA9",
"G  c #9B9EAA",
"H  c #9B9FAA",
"J  c #9EA1AA",
"K  c #A3A6AF",
"L  c #A4A7AF",
"P  c #A5A7B0",
"I  c #A5A8B0",
"U  c #A9ACB3",
"Y  c #AAADB4",
"T  c #ACAEB6",
"R  c #ACAFB6",
"E  c #AEB0B7",
"W  c #B0B2B9",
"Q  c #B5B7BD",
"!  c #B6B8BE",
"~  c gray72",
"^  c #BABCC1",
"/  c #BDBEC3",
"(  c #BEC0C5",
")  c #BFC1C6",
"_  c #C0C2C7",
"`  c #C1C3C7",
"'  c #C2C4C8",
"]  c #C3C5C9",
"[  c #C4C6CA",
"{  c #C9CACD",
"}  c #D0D1D3",
"|  c #D3D3D6",
" . c #D5D6D8",
".. c #D6D6D8",
"X. c #D7D7D9",
"o. c #D8D8DA",
"O. c #D9DADB",
"+. c #DADBDC",
"@. c #DCDCDE",
"#. c #DFDFE0",
"$. c #DFE0E0",
"%. c #E1E1E2",
"&. c #E2E2E2",
"*. c #E2E2E3",
"=. c gray89",
"-. c #E4E4E4",
";. c gray90",
":. c white",
">. c None",
/* pixels */
">.>.>.>.>.O o o o o o o o o o o o o o o o o o o o o o o o o o o O >.>.>.>.>.",
">.>.>.o o o o o o o o o o o o o o o o o o o o o o o o o o o o o o o o >.>.>.",
">.>.. o o o o o o o o o o o o o o o o o o o o o o o o o o o o o o o o o >.>.",
">.. O o o o o o o o o   o o o o o o o o o o o   o o o o o o o o o o o o o >.",
">.o O . o # h n m n n n m m m m m n n n n n n n n n n m m n n d # O O o o >.",
"O o o O # ( ;.;.;.;.;.;.;.;.;.;.;.;.;.;.;.;.;.;.;.;.;.;.;.;.;.;./ # . O o o ",
"o o O . h ;.;.;.;.;.;.;.;.;.;.;.;.;.;.;.;.;.;.;.;.;.;.;.;.;.;.;.;.s o o o . ",
"o o . . n ;.;.;.;.;.;.;.;.;.;.;.;.;.;.;.;.;.;.;.;.;.;.;.;.;.;.;.;.n o o o O ",
"o o o o m ;.;.;.;.;.;.;.;.;.;.;.;.;.;.;.;.;.;.;.;.;.;.;.;.;.;.;.;.m o o o o ",
"o o o o m ;.;.;.+.L L L _ ;.;.;.;.U L L P ;.;.;.;._ L L L o.;.;.;.m o o o o ",
"o o o o m ;.;.;.&.* o o p ;.;.;...o o o o { ;.;.;.u + o & #.;.;.;.m o o o o ",
"o o o o m ;.;.;.;.e o o < ;.;.;.T o o o o L ;.;.;.,   o e ;.;.;.;.m o o o o ",
"o o o o m ;.;.;.;.C o o o ..;.;.z o o o o j ;.;...o o o V ;.;.;.;.m o o o o ",
"o o o o m ;.;.;.;._ o o + Q ;.;.3 o o o o 1 ;.;.Q o o o _ ;.;.;.;.m o o o o ",
"o o o o m ;.;.;.;.&.- O . C ;.X.+ . & & o o | ;.B o o - =.;.;.;.;.m o o o o ",
"o o o o m ;.;.;.;.;.r . O a ;.W . . e e o o T ;.i o o i ;.;.;.;.;.m o o o o ",
"o o o o m ;.;.;.;.;.S o O 1 ;.c O o B M o o x ;.< . . H ;.;.;.;.;.m o o o o ",
"o o o o m ;.;.;.;.;.] o o . o.5 o o / ^ o o 5 ... . . { ;.;.;.;.;.m o o o o ",
"o o o o m ;.;.;.;.;.=.- o o E + + & &.#.# o o T O o : ;.;.;.;.;.;.m o o o o ",
"o o o o m ;.;.;.;.;.;.r o o 7 o O e ;.;.7 o o 6 . O h ;.;.;.;.;.;.m o o o o ",
"o o o o m ;.;.;.;.;.;.H o o o o o C ;.;.n o o o o o P ;.;.;.;.;.;.m o o o o ",
"o o o o m ;.;.;.;.;.;.] o o o o o ( ;.;.Q o o o o + } ;.;.;.;.;.;.m o o o o ",
"o o o o m ;.;.;.;.;.;.-.; o O . & &.;.;.@.+ o o o 1 ;.;.;.;.;.;.;.m o o o o ",
"o o o o m ;.;.;.;.;.;.;.l 2 2 2 j ;.;.;.;.r 2 2 3 c ;.;.;.;.;.;.;.m o o o o ",
"o o o o m ;.;.;.;.;.;.;.;.;.;.;.;.;.;.;.;.;.;.;.;.;.;.;.;.;.;.;.;.m o o o o ",
"o o o o m ;.;.;.;.;.;.;.;.;.;.;.;.;.;.;.;.;.;.;.;.;.;.;.;.;.;.;.;.m o o o o ",
"o o o o m ;.;.;.;.;.;.;.;.;.;.;.;.;.;.;.;.;.;.;.;.;.;.;.;.;.;.;.;.m o o o o ",
"o o o o m ;.;.;.;.;.;.;.;.;.;.;.;.;.;.;.;.;.;.;.;.;.;.;.;.;.;.;.;.m o o o o ",
"o o o o m ;.;.;.;.;.;.;.;.;.;.;.;.;.;.;.;.;.;.;.;.;.;.;.;.;.;.;.;.m o o o o ",
"o o o o m ;.;.;.;.;.;.;.;.;.;.;.;.;.;.;.;.;.;.;.;.;.;.;.;.;.;.;.;.m o o o o ",
"o o o o m ;.;.;.;.;.;.;.;.;.;.;.;.;.;.;.;.;.;.;.;.;.;.;.;.;.;.;.;.m o o o o ",
"o o o o m ;.;.;.;.;.;.;.:.:.:.:.:.:.:.:.:.:.:.:.:.:.;.;.;.;.;.;.;.m o o o o ",
"o o o o G :.:.:.:.:.:.:.:.:.:.:.:.:.:.:.:.:.:.:.:.:.:.:.:.:.:.:.:.G . . o o ",
"o o o o G :.:.:.~ ~ ~ ~ ~ ~ ~ ~ ~ ~ ~ ~ ~ ~ ~ ~ ~ ~ ~ ~ ~ ~ :.:.:.G O . o O ",
"o o o o 0 ~ ~ ~ ~ ~ ~ ~ ~ ~ ~ ~ ~ ~ ~ ~ ~ ~ ~ ~ ~ ~ ~ ~ ~ ~ ~ ~ ~ 0 . O o . ",
"o o o o # A ~ ~ ~ ~ ~ ~ ~ ~ ~ ~ ~ ~ ~ ~ ~ ~ ~ ~ ~ ~ ~ ~ ~ ~ ~ ~ Z # o o o o ",
">.o o o o # 0 s s s s s s s s s s s s s s s s s s s s s s s s 0 + . o o o >.",
">.o o o o o o o o o o o . . o O o o o o o o o o O . o o o o o o o O o o o >.",
">.>.o o o o o o o o o o o o o o o o o o o o o o o o o o o o o o o o o o >.>.",
">.>.>.o o o o o o o o o o o o o o o o o o o o o o o o o o o o o o o o >.>.>.",
">.>.>.>.>.o o o o o o o o o o o o o o o o o o o o o o o o o o o o >.>.>.>.>."
};
