/* XPM */
static char *watermelon_2[] = {
/* columns rows colors chars-per-pixel */
"32 32 9 1 ",
"  c #202830",
". c #49772E",
"X c #BB3F4A",
"o c #DD4A57",
"O c #568C36",
"+ c #66A540",
"@ c #A7EE7D",
"# c white",
"$ c None",
/* pixels */
"$$$$$$$$$$$$$$$$$$$$$$$$$$$$$$$$",
"$$$$$$$$$$$$$$$$$$$$$$$$$$$$$$$$",
"$$$$$$$$$$$$$$$$$$$$$$$$$$$$$$$$",
"$$$$$$$$$$$$$$$$$$$$$$$$$$$$$$$$",
"$$$$$$$$$$$$$$$$$$$$$$$$$$$$$$$$",
"$$$$$$$$$$$$$######$$$$$$$$$$$$$",
"$$$$$$$$$$$$#XXXXXX#$$$$$$$$$$$$",
"$$$$$$$$$$$#XooooooX#$$$$$$$$$$$",
"$$$$$$$$$$#XooooooooX#$$$$$$$$$$",
"$$$$$$$$$#XooooooooooX#$$$$$$$$$",
"$$$$$$$$$#XooooooooooX#$$$$$$$$$",
"$$$$$$$$#XooooooooooooX#$$$$$$$$",
"$$$$$$$$#Xoo #oooooo #X#$$$$$$$$",
"$$$$$$$$#Xoo  oooooo  X#$$$$$$$$",
"$$$$$$$#Xoooooooo  ooooX#$$$$$$$",
"$$$$$$$#XooooooooooooooX#$$$$$$$",
"$$$$$$$#Xo oooooooooo oX#$$$$$$$",
"$$$$$$#O@oooo oooo oooo@O#$$$$$$",
"$$$$$$#O+@oooooooooooo@+O#$$$$$$",
"$$$$$$#.O+@@@@@@@@@@@@+O.#$$$$$$",
"$$$$$$$#.O+++@@@@@@+++O.#$$$$$$$",
"$$$$$$$$#.OO++++++++OO.#$$$$$$$$",
"$$$$$$$$$#..OOOOOOOO..#$$$$$$$$$",
"$$$$$$$$$$##........##$$$$$$$$$$",
"$$$$$$$$$#############$$$$$$$$$$",
"$$$$$$$$#     ######  #$$$$$$$$$",
"$$$$$$$$$#           #$$$$$$$$$$",
"$$$$$$$$$$###########$$$$$$$$$$$",
"$$$$$$$$$$$$$$$$$$$$$$$$$$$$$$$$",
"$$$$$$$$$$$$$$$$$$$$$$$$$$$$$$$$",
"$$$$$$$$$$$$$$$$$$$$$$$$$$$$$$$$",
"$$$$$$$$$$$$$$$$$$$$$$$$$$$$$$$$"
};
